<svg width="277" height="250" viewBox="0 0 277 250" fill="none" xmlns="http://www.w3.org/2000/svg">
<rect width="277" height="249.609" rx="14" fill="#14151B"/>
<path d="M37.5611 59.2886H38.4811V53.4566H36.8171V54.2886H37.5611V59.2886ZM39.734 56.2966C39.734 57.9926 40.182 59.2726 41.814 59.2726C43.446 59.2726 43.894 57.9926 43.894 56.2966C43.894 54.6326 43.446 53.3526 41.814 53.3526C40.182 53.3526 39.734 54.6326 39.734 56.2966ZM42.998 56.2966C42.998 57.4406 42.878 58.4406 41.814 58.4406C40.75 58.4406 40.63 57.4406 40.63 56.2966C40.63 55.2086 40.75 54.1846 41.814 54.1846C42.878 54.1846 42.998 55.2086 42.998 56.2966ZM44.859 56.2966C44.859 57.9926 45.307 59.2726 46.939 59.2726C48.571 59.2726 49.019 57.9926 49.019 56.2966C49.019 54.6326 48.571 53.3526 46.939 53.3526C45.307 53.3526 44.859 54.6326 44.859 56.2966ZM48.123 56.2966C48.123 57.4406 48.003 58.4406 46.939 58.4406C45.875 58.4406 45.755 57.4406 45.755 56.2966C45.755 55.2086 45.875 54.1846 46.939 54.1846C48.003 54.1846 48.123 55.2086 48.123 56.2966ZM53.36 59.2886H54.384L52.656 56.5126L54.392 53.7286H53.376L52.192 55.7606L50.928 53.7286H49.904L51.64 56.5126L49.912 59.2886H50.928L52.104 57.2726L53.36 59.2886Z" fill="#9A9BA4"/>
<path d="M38.9975 89.0806H39.8935V87.8646H40.6375V87.0726H39.8935V83.3206H38.7895L36.1015 87.1766V87.8646H38.9975V89.0806ZM37.1495 87.0726L39.0375 84.2486V87.0726H37.1495ZM44.1772 89.0806H45.0732V87.8646H45.8172V87.0726H45.0732V83.3206H43.9692L41.2812 87.1766V87.8646H44.1772V89.0806ZM42.3292 87.0726L44.2172 84.2486V87.0726H42.3292ZM49.9489 89.0806H50.9729L49.2449 86.3046L50.9809 83.5206H49.9649L48.7809 85.5526L47.5169 83.5206H46.4929L48.2289 86.3046L46.5009 89.0806H47.5169L48.6929 87.0646L49.9489 89.0806Z" fill="#9A9BA4"/>
<path d="M39.0248 118.872H39.9208V117.656H40.6648V116.864H39.9208V113.112H38.8168L36.1288 116.968V117.656H39.0248V118.872ZM37.1768 116.864L39.0648 114.04V116.864H37.1768ZM41.4205 115.88C41.4205 117.576 41.8685 118.856 43.5005 118.856C45.1325 118.856 45.5805 117.576 45.5805 115.88C45.5805 114.216 45.1325 112.936 43.5005 112.936C41.8685 112.936 41.4205 114.216 41.4205 115.88ZM44.6845 115.88C44.6845 117.024 44.5645 118.024 43.5005 118.024C42.4365 118.024 42.3165 117.024 42.3165 115.88C42.3165 114.792 42.4365 113.768 43.5005 113.768C44.5645 113.768 44.6845 114.792 44.6845 115.88ZM49.9215 118.872H50.9455L49.2175 116.096L50.9535 113.312H49.9375L48.7535 115.344L47.4895 113.312H46.4655L48.2015 116.096L46.4735 118.872H47.4895L48.6655 116.856L49.9215 118.872Z" fill="#9A9BA4"/>
<path d="M36.4514 144.271H37.3394C37.3954 143.863 37.6914 143.479 38.3314 143.479C38.9554 143.479 39.2834 143.815 39.2834 144.319C39.2834 144.943 38.7794 145.183 37.9554 145.191H37.7394V145.943H37.9474C38.8994 145.943 39.3954 146.207 39.3954 146.975C39.3954 147.519 39.0594 147.935 38.3794 147.935C37.6914 147.935 37.2914 147.519 37.2514 146.975H36.3714C36.4274 148.119 37.2834 148.695 38.3874 148.695C39.6034 148.695 40.2594 147.991 40.2594 147.063C40.2594 146.255 39.8674 145.751 39.2594 145.567V145.535C39.7154 145.383 40.1554 144.911 40.1554 144.215C40.1554 143.367 39.5234 142.695 38.3634 142.695C37.2994 142.695 36.5154 143.263 36.4514 144.271ZM42.2014 145.615C41.6174 145.831 41.2254 146.351 41.2254 147.055C41.2254 148.119 42.0894 148.807 43.2894 148.807C44.4974 148.807 45.3614 148.119 45.3614 147.055C45.3614 146.359 44.9694 145.839 44.3774 145.615C44.8494 145.383 45.2094 144.927 45.2094 144.303C45.2094 143.463 44.5774 142.727 43.2894 142.727C42.0014 142.727 41.3694 143.455 41.3694 144.303C41.3694 144.951 41.7054 145.367 42.2014 145.615ZM43.2894 145.327C42.6814 145.327 42.2494 144.951 42.2494 144.423C42.2494 143.807 42.6654 143.487 43.2894 143.487C43.9294 143.487 44.3374 143.815 44.3374 144.415C44.3374 144.943 43.8974 145.327 43.2894 145.327ZM43.2894 146.015C43.9774 146.015 44.4654 146.367 44.4654 147.023C44.4654 147.607 44.0254 148.047 43.2894 148.047C42.5454 148.047 42.0974 147.615 42.0974 147.023C42.0974 146.343 42.6174 146.015 43.2894 146.015ZM49.695 148.663H50.719L48.991 145.887L50.727 143.103H49.711L48.527 145.135L47.263 143.103H46.239L47.975 145.887L46.247 148.663H47.263L48.439 146.647L49.695 148.663Z" fill="#9A9BA4"/>
<path d="M36.4358 174.062H37.3238C37.3798 173.654 37.6758 173.27 38.3158 173.27C38.9398 173.27 39.2678 173.606 39.2678 174.11C39.2678 174.734 38.7638 174.974 37.9398 174.982H37.7238V175.734H37.9318C38.8838 175.734 39.3798 175.998 39.3798 176.766C39.3798 177.31 39.0438 177.726 38.3638 177.726C37.6758 177.726 37.2758 177.31 37.2358 176.766H36.3558C36.4118 177.91 37.2678 178.486 38.3718 178.486C39.5878 178.486 40.2438 177.782 40.2438 176.854C40.2438 176.046 39.8518 175.542 39.2438 175.358V175.326C39.6998 175.174 40.1398 174.702 40.1398 174.006C40.1398 173.158 39.5078 172.486 38.3478 172.486C37.2838 172.486 36.4998 173.054 36.4358 174.062ZM45.1778 173.974C45.0818 173.198 44.5138 172.478 43.3778 172.478C41.9218 172.478 41.3138 173.582 41.3138 175.406C41.3138 177.262 41.7538 178.454 43.4498 178.454C44.6978 178.454 45.3618 177.614 45.3618 176.51C45.3618 175.294 44.6178 174.59 43.5698 174.59C42.9618 174.59 42.3858 174.846 42.0978 175.326C42.1218 173.798 42.5458 173.238 43.3698 173.238C43.9458 173.238 44.2258 173.502 44.3378 173.974H45.1778ZM43.3698 175.358C44.1378 175.358 44.4898 175.854 44.4898 176.55C44.4898 177.238 44.0738 177.694 43.4018 177.694C42.6258 177.694 42.2018 177.214 42.2018 176.494C42.2018 175.718 42.7698 175.358 43.3698 175.358ZM49.7106 178.454H50.7346L49.0066 175.678L50.7426 172.894H49.7266L48.5426 174.926L47.2786 172.894H46.2546L47.9906 175.678L46.2626 178.454H47.2786L48.4546 176.438L49.7106 178.454Z" fill="#9A9BA4"/>
<path d="M36.4397 203.853H37.3277C37.3837 203.445 37.6797 203.061 38.3197 203.061C38.9437 203.061 39.2717 203.397 39.2717 203.901C39.2717 204.525 38.7677 204.765 37.9437 204.773H37.7277V205.525H37.9357C38.8877 205.525 39.3837 205.789 39.3837 206.557C39.3837 207.101 39.0477 207.517 38.3677 207.517C37.6797 207.517 37.2797 207.101 37.2397 206.557H36.3597C36.4157 207.701 37.2717 208.277 38.3757 208.277C39.5917 208.277 40.2477 207.573 40.2477 206.645C40.2477 205.837 39.8557 205.333 39.2477 205.149V205.117C39.7037 204.965 40.1437 204.493 40.1437 203.797C40.1437 202.949 39.5117 202.277 38.3517 202.277C37.2877 202.277 36.5037 202.845 36.4397 203.853ZM41.2057 205.253C41.2057 206.949 41.6537 208.229 43.2857 208.229C44.9177 208.229 45.3657 206.949 45.3657 205.253C45.3657 203.589 44.9177 202.309 43.2857 202.309C41.6537 202.309 41.2057 203.589 41.2057 205.253ZM44.4697 205.253C44.4697 206.397 44.3497 207.397 43.2857 207.397C42.2217 207.397 42.1017 206.397 42.1017 205.253C42.1017 204.165 42.2217 203.141 43.2857 203.141C44.3497 203.141 44.4697 204.165 44.4697 205.253ZM49.7067 208.245H50.7307L49.0027 205.469L50.7387 202.685H49.7227L48.5387 204.717L47.2747 202.685H46.2507L47.9867 205.469L46.2587 208.245H47.2747L48.4507 206.229L49.7067 208.245Z" fill="#9A9BA4"/>
<path d="M46.6305 27.1436H47.8305L45.3405 20.1836H44.0205L41.5305 27.1436H42.7205L43.2205 25.7236H46.1305L46.6305 27.1436ZM45.8105 24.7936H43.5405L44.6805 21.5636L45.8105 24.7936ZM48.5331 24.3836C48.5331 26.1136 49.6531 27.2336 51.2331 27.2336C52.5831 27.2336 53.4631 26.4836 53.7731 25.4036H52.5431C52.3331 25.9736 51.9131 26.2736 51.2331 26.2736C50.3131 26.2736 49.7031 25.5936 49.7031 24.3836C49.7031 23.1836 50.3131 22.5036 51.2331 22.5036C51.9131 22.5036 52.3531 22.8436 52.5431 23.3736H53.7731C53.4631 22.2136 52.5831 21.5436 51.2331 21.5436C49.6531 21.5436 48.5331 22.6636 48.5331 24.3836ZM55.0892 25.6136C55.0892 26.7336 55.6992 27.1436 56.6792 27.1436H57.5792V26.1936H56.8792C56.3992 26.1936 56.2392 26.0236 56.2392 25.6136V22.5636H57.5792V21.6336H56.2392V20.2636H55.0892V21.6336H54.4392V22.5636H55.0892V25.6136ZM58.6299 27.1436H59.7699V21.6336H58.6299V27.1436ZM59.2099 20.9036C59.6099 20.9036 59.9299 20.5836 59.9299 20.1736C59.9299 19.7636 59.6099 19.4436 59.2099 19.4436C58.7999 19.4436 58.4799 19.7636 58.4799 20.1736C58.4799 20.5836 58.7999 20.9036 59.2099 20.9036ZM60.6166 21.6336L62.7066 27.1436H64.0666L66.1666 21.6336H64.9566L63.3966 26.1236L61.8366 21.6336H60.6166ZM67.0284 27.1436H68.1684V21.6336H67.0284V27.1436ZM67.6084 20.9036C68.0084 20.9036 68.3284 20.5836 68.3284 20.1736C68.3284 19.7636 68.0084 19.4436 67.6084 19.4436C67.1984 19.4436 66.8784 19.7636 66.8784 20.1736C66.8784 20.5836 67.1984 20.9036 67.6084 20.9036ZM69.8451 25.6136C69.8451 26.7336 70.4551 27.1436 71.4351 27.1436H72.3351V26.1936H71.6351C71.1551 26.1936 70.9951 26.0236 70.9951 25.6136V22.5636H72.3351V21.6336H70.9951V20.2636H69.8451V21.6336H69.1951V22.5636H69.8451V25.6136ZM75.5558 25.8336L74.0058 21.6336H72.7358L74.9058 27.0536L73.7858 29.7336H74.9658L78.3458 21.6336H77.1658L75.5558 25.8336Z" fill="#FBFBFC"/>
<path d="M68.0392 58.5581H256.058" stroke="#F5F7F8"/>
<path d="M68.0387 88.3494H256.058" stroke="#F5F7F8"/>
<path d="M68.0387 118.141H256.058" stroke="#F5F7F8"/>
<path d="M68.0387 147.932H256.058" stroke="#F5F7F8"/>
<path d="M68.0387 177.724H256.058" stroke="#F5F7F8"/>
<path d="M68.0387 207.515H256.058" stroke="#F5F7F8"/>
<path d="M70.5475 118.64C77.1846 111.844 92.629 101.923 101.31 116.613C112.161 134.976 110.372 142.368 118.361 151.788C126.35 161.208 140.658 153.1 146.024 130.087C151.39 107.074 158.687 64.9171 165.725 58.8964C172.764 52.8758 179.919 65.2287 182.241 101.284C184.562 137.339 197.106 146.178 204.699 137.264C212.293 128.35 222.087 92.5841 238.484 89.2827C254.881 85.9812 260.164 103.699 259.613 119.106" stroke="#FEC34B"/>
<path d="M259.649 103.904C253.018 110.715 237.587 120.657 228.914 105.935C218.073 87.5334 219.86 80.1248 211.878 70.6848C203.896 61.2448 189.601 69.3704 184.24 92.4326C178.879 115.495 171.588 157.742 164.556 163.776C157.524 169.809 150.375 157.43 148.056 121.297C145.737 85.1645 133.204 76.3074 125.618 85.2404C118.031 94.1734 108.246 130.016 91.8631 133.324C75.4807 136.633 70.2032 118.877 70.7529 103.437" stroke="#0EC37D"/>
<circle cx="183.877" cy="101.429" r="9.38205" fill="#FFD33A"/>
<circle cx="183.878" cy="101.43" r="5.74902" fill="#F7E7BE"/>
<path fill-rule="evenodd" clip-rule="evenodd" d="M136 26C133.791 26 132 27.7909 132 30V49C132 51.2091 133.791 53 136 53H159L169.5 61.5L178 53H201C203.209 53 205 51.2091 205 49V30C205 27.7909 203.209 26 201 26H136Z" fill="#242937"/>
<path d="M154.85 43.87H155.5V43.05C156.85 42.93 157.59 41.99 157.59 41.02C157.59 39.61 156.5 39.34 155.5 39.1V36.94C155.98 37.06 156.26 37.43 156.3 37.83H157.52C157.43 36.7 156.65 36.07 155.5 35.97V35.16H154.85V35.98C153.61 36.09 152.75 36.86 152.75 37.98C152.75 39.39 153.85 39.67 154.85 39.92V42.12C154.29 42.02 154.01 41.65 153.97 41.15H152.75C152.75 42.28 153.63 42.95 154.85 43.06V43.87ZM156.44 41.08C156.44 41.6 156.1 42.02 155.5 42.12V40.09C156.04 40.26 156.44 40.51 156.44 41.08ZM153.91 37.92C153.91 37.31 154.3 36.98 154.85 36.91V38.93C154.31 38.76 153.91 38.5 153.91 37.92ZM160.034 43H161.184V35.71H159.104V36.75H160.034V43ZM166.23 43H167.35V41.48H168.28V40.49H167.35V35.8H165.97L162.61 40.62V41.48H166.23V43ZM163.92 40.49L166.28 36.96V40.49H163.92ZM170.555 42.34C170.555 41.93 170.235 41.61 169.835 41.61C169.425 41.61 169.105 41.93 169.105 42.34C169.105 42.75 169.425 43.07 169.835 43.07C170.235 43.07 170.555 42.75 170.555 42.34ZM171.637 39.26C171.637 41.38 172.197 42.98 174.237 42.98C176.277 42.98 176.837 41.38 176.837 39.26C176.837 37.18 176.277 35.58 174.237 35.58C172.197 35.58 171.637 37.18 171.637 39.26ZM175.717 39.26C175.717 40.69 175.567 41.94 174.237 41.94C172.907 41.94 172.757 40.69 172.757 39.26C172.757 37.9 172.907 36.62 174.237 36.62C175.567 36.62 175.717 37.9 175.717 39.26ZM178.043 39.26C178.043 41.38 178.603 42.98 180.643 42.98C182.683 42.98 183.243 41.38 183.243 39.26C183.243 37.18 182.683 35.58 180.643 35.58C178.603 35.58 178.043 37.18 178.043 39.26ZM182.123 39.26C182.123 40.69 181.973 41.94 180.643 41.94C179.313 41.94 179.163 40.69 179.163 39.26C179.163 37.9 179.313 36.62 180.643 36.62C181.973 36.62 182.123 37.9 182.123 39.26Z" fill="#F5F7F8"/>
</svg>
