<svg width="741" height="759" viewBox="0 0 741 759" fill="none" xmlns="http://www.w3.org/2000/svg">
<path d="M330.334 615.463C316.986 601.858 285.933 573.194 268.51 567.379C286.55 588.968 329.705 645.616 358.006 699.492C341.237 676.125 304.637 625.856 292.39 611.711C309.427 636.52 345.878 693.726 355.378 724.077L337.222 704.013C335.772 704.829 333.318 707.564 335.102 711.979C336.886 716.393 301.663 672.228 283.829 649.593L329.976 729.603C328.167 728.496 323.519 725.905 319.394 724.401C314.238 722.521 328.851 749.358 326.273 748.418C324.21 747.666 312.002 732.013 306.156 724.281C299.928 712.409 287.932 689.235 285.536 683.485C287.364 689.533 294.711 714.66 303.229 727.918C313.383 743.72 267.694 672.615 253.729 662.146C249.986 654.956 239.154 636.801 225.768 621.704L221.926 607.531L163.078 530.284L111.377 478.497C107.286 475.885 98.2281 467.25 94.7243 453.604C86.0942 445.977 70.9124 430.269 79.226 428.46C89.6179 426.2 108.58 450.59 104.658 442.438C100.737 434.287 100.816 428.266 107.127 429.895C113.438 431.523 88.0849 411.525 99.8208 416.476C109.209 420.437 132.307 433.922 142.683 440.17C148.466 445.415 162.326 456.608 171.499 459.414C180.962 469.362 189.649 475.577 148.695 420.852C141.578 414.896 125.005 383.983 115.658 372.509L87.4198 364.126C90.5871 371.167 93.8708 377.248 89.1006 378.286C81.8932 379.854 73.19 373.394 75.2145 360.503L66.057 357.785C66.6245 380.174 87.198 413.219 71.4321 386.632C55.6662 360.046 28.5924 317.909 38.2568 305.301L44.9649 276.827L33.6397 306.305L31.1711 318.849L29.021 307.31L20.59 313.647L14.7072 301.419L7.77928 302.926L5.09172 288.503C4.55421 285.618 4.75799 248.053 46.7066 253.936C47.1367 256.243 55.3551 253.055 59.4106 251.172C69.7843 257.42 91.9018 270.818 97.3824 274.429C103.769 278.635 106.671 280.992 115.173 283.169L116.315 279.315C101.728 268.08 40.2814 195.801 11.3813 161.066L69.392 214.482L0.582815 128.896L35.6307 155.79L34.8244 151.463L90.0689 196.476C94.0073 196.12 96.7221 189.626 76.0736 166.503C55.4252 143.38 41.7225 130.452 37.4523 126.878L42.1506 119.853L33.1522 103.801C60.7711 133.812 118.625 196.267 129.088 205.997L79.3187 138.782C97.0002 158.448 136.418 200.2 152.639 209.879C168.86 219.557 173.991 227.746 174.528 230.631C187.143 248.898 216.96 286.836 235.307 292.45C237.616 291.947 259.664 300.658 242.126 277.459C228.094 258.9 218.123 249.662 214.891 247.364C219.036 245.962 225.616 241.729 218.784 236.012C211.951 230.294 195.83 215.991 188.623 209.555L188.543 215.575C184.273 212.002 175.964 204.805 176.887 204.604C177.811 204.403 182.249 205.438 184.353 205.981L186.742 199.458C177.485 188.465 157.461 167.407 151.425 171.122C143.88 175.765 148.658 162.719 136.544 142.842C124.43 122.965 125.774 130.177 115.621 114.376C105.468 98.5745 100.391 90.6739 118.089 101.832C132.248 110.758 141.428 121.768 144.248 126.158L141.023 108.849L147.603 111.92L144.029 99.1905L160.035 107.715C158.058 112.147 156.127 120.271 164.226 117.309C172.498 123.014 189.557 134.611 191.619 135.363C193.682 136.115 203.866 145.205 208.7 149.657C217.689 159.208 237.658 179.977 245.629 186.647C253.601 193.318 262.594 202.467 266.095 206.208L269.907 200.877L300.068 227.333L297.111 211.467L323.081 228.33L306.966 206.322L357.94 247.761L390.41 273.716L408.237 253.328L403.161 245.428L396.153 252.955L367.147 226.248L359.951 226.312L257.863 110.446C252.876 103.026 240.985 89.5041 233.317 94.7744C225.648 100.045 227.095 93.6265 228.778 89.7586L221.929 85.2451L218.007 77.0934L212.772 81.234L197.194 62.1107L194.506 47.6871C189.439 46.2879 180.407 42.9499 184.811 40.7913C190.315 38.0929 192.973 33.0123 186.931 32.826C182.097 32.6768 177.81 33.3094 176.27 33.6444C175.554 29.7981 175.044 21.9047 178.739 21.1009C183.358 20.0961 207.257 19.3994 205.645 10.7453C204.355 3.82197 218.246 0.999831 225.353 0.45427L231.585 8.10364L242.245 7.28524C258.241 9.30834 301.256 28.6662 345.348 89.9128C400.463 166.471 423.079 197.571 447.356 211.8C454.248 205.798 464.83 192.09 452.025 185.27C439.22 178.451 452.078 181.257 460.108 183.512L461.66 153.158L406.735 84.0625L462.706 139.423L398.861 48.2549L428.673 79.2899L434.257 70.5709C439.271 75.9838 452.875 90.5337 467.185 105.431C468.608 106.622 488.805 124.74 436.188 55.1426C435.973 53.9886 429.33 44.1278 426.035 39.3415L434.924 41.9102L429.041 29.6827L454.932 52.5658C455.854 55.3668 458.424 58.4099 461.322 48.174L482.644 46.5371L721.658 342.73C751.493 408.279 768.963 517.941 600.159 432.197L591.431 431.977C586.162 436.886 593.797 456.541 599.682 468.32L589.543 462.271L595.252 476.788L602.668 503.69L594.585 505.449L597.273 519.872L604.927 528.713C607.3 530.698 612.313 536.111 613.388 541.88L618.763 570.727L626.179 597.63L626.985 601.957L623.631 616.194L608.7 613.439L616.195 634.32C612.22 630.182 604.001 620.464 602.926 614.695C601.851 608.925 592.969 591.347 588.662 583.279L585.925 594.38L576.658 576.886C577.232 584.265 578.702 600.754 579.992 607.677C581.282 614.601 535.711 546.272 512.764 511.242L537.718 561.344L545.641 571.627L551.873 579.276L596.118 694.22L597.999 704.316L600.199 690.329C604.123 699.314 611.676 716.461 612.443 717.655L612.502 717.67C612.233 716.228 619.161 714.721 619.968 719.048C620.613 722.509 620.973 737.339 621.073 744.321C623.096 750.885 619.679 762.634 589.817 757.124C559.955 751.614 550.95 750.571 550.18 750.739L545.641 745.723L537.29 746.04L529.636 737.2L515.322 731.309L501.516 708.798L490.457 706.365L506.552 729L498.012 722.329L495.074 717.5L481.428 704.316L476.511 694.22L468.429 683.758L456.204 675.735L468.429 675.735L475.665 675.735L479.804 678.001L479.804 680L483.506 680.5L486.206 687.712L489.848 694.17C489.622 684.687 489.072 672.691 486.206 669.707C480.243 663.497 462.904 675.735 451.965 668.548C448.744 666.432 445.501 663.952 444.579 661.152L442.16 648.171L423.308 637.264C424.81 632.433 425.721 624.427 417.345 631.054L402.573 616.261L389.493 604.095L382.835 607.047C379.862 599.69 372.584 585.565 367.257 587.924L367.177 593.945L355.173 587.551L353.242 602.98L360.17 601.473L365.435 616.836L384.129 639.784L353.162 609L343.278 594.642C340.136 592.824 334.066 590.342 334.926 594.958C335.786 599.573 340.925 605.659 343.387 608.125C345.195 609.231 347.248 612.083 340.998 614.645C334.747 617.208 331.284 616.258 330.334 615.463Z" fill="#12141A"/>
</svg>
