<svg xmlns="http://www.w3.org/2000/svg" width="219" height="175" fill="none" viewBox="0 0 219 175"><rect width="219" height="175" fill="#14151A" rx="10"/><path fill="#FBFBFC" d="M22.5775 27.25V24.98H23.8375C24.7275 24.98 25.1275 25.4 25.1275 26.12C25.1275 26.82 24.7275 27.25 23.8375 27.25H22.5775ZM26.2975 26.12C26.2975 24.99 25.4875 24.05 23.8375 24.05H21.4375V31H22.5775V28.18H23.8375C25.6475 28.18 26.2975 27.11 26.2975 26.12ZM28.5248 28.1C28.5248 26.93 29.0448 26.58 29.8848 26.58H30.1748V25.4C29.3948 25.4 28.8448 25.74 28.5248 26.29V25.49H27.3848V31H28.5248V28.1ZM31.2227 31H32.3627V25.49H31.2227V31ZM31.8027 24.76C32.2027 24.76 32.5227 24.44 32.5227 24.03C32.5227 23.62 32.2027 23.3 31.8027 23.3C31.3927 23.3 31.0727 23.62 31.0727 24.03C31.0727 24.44 31.3927 24.76 31.8027 24.76ZM33.4794 28.24C33.4794 29.97 34.5994 31.09 36.1794 31.09C37.5294 31.09 38.4094 30.34 38.7194 29.26H37.4894C37.2794 29.83 36.8594 30.13 36.1794 30.13C35.2594 30.13 34.6494 29.45 34.6494 28.24C34.6494 27.04 35.2594 26.36 36.1794 26.36C36.8594 26.36 37.2994 26.7 37.4894 27.23H38.7194C38.4094 26.07 37.5294 25.4 36.1794 25.4C34.5994 25.4 33.4794 26.52 33.4794 28.24ZM42.1755 26.36C43.0255 26.36 43.6955 26.9 43.7155 27.75H40.6655C40.7855 26.88 41.4055 26.36 42.1755 26.36ZM44.7555 29.36H43.5255C43.3155 29.79 42.9255 30.13 42.2255 30.13C41.3855 30.13 40.7355 29.58 40.6555 28.67H44.8655C44.8955 28.48 44.9055 28.3 44.9055 28.11C44.9055 26.49 43.7955 25.4 42.2255 25.4C40.5955 25.4 39.4755 26.51 39.4755 28.24C39.4755 29.97 40.6455 31.09 42.2255 31.09C43.5755 31.09 44.4455 30.32 44.7555 29.36Z"/><rect width="80.908" height="25.969" x="16.688" y="134.467" fill="#212330" rx="3"/><path fill="#E9E9E9" d="M48.5164 152.094H49.1664V151.274C50.5164 151.154 51.2564 150.214 51.2564 149.244C51.2564 147.834 50.1664 147.564 49.1664 147.324V145.164C49.6464 145.284 49.9264 145.654 49.9664 146.054H51.1864C51.0964 144.924 50.3164 144.294 49.1664 144.194V143.384H48.5164V144.204C47.2764 144.314 46.4164 145.084 46.4164 146.204C46.4164 147.614 47.5164 147.894 48.5164 148.144V150.344C47.9564 150.244 47.6764 149.874 47.6364 149.374H46.4164C46.4164 150.504 47.2964 151.174 48.5164 151.284V152.094ZM50.1064 149.304C50.1064 149.824 49.7664 150.244 49.1664 150.344V148.314C49.7064 148.484 50.1064 148.734 50.1064 149.304ZM47.5764 146.144C47.5764 145.534 47.9664 145.204 48.5164 145.134V147.154C47.9764 146.984 47.5764 146.724 47.5764 146.144ZM53.7003 151.224H54.8503V143.934H52.7703V144.974H53.7003V151.224ZM56.4164 147.484C56.4164 149.604 56.9764 151.204 59.0164 151.204C61.0564 151.204 61.6164 149.604 61.6164 147.484C61.6164 145.404 61.0564 143.804 59.0164 143.804C56.9764 143.804 56.4164 145.404 56.4164 147.484ZM60.4964 147.484C60.4964 148.914 60.3464 150.164 59.0164 150.164C57.6864 150.164 57.5364 148.914 57.5364 147.484C57.5364 146.124 57.6864 144.844 59.0164 144.844C60.3464 144.844 60.4964 146.124 60.4964 147.484ZM62.8227 147.484C62.8227 149.604 63.3827 151.204 65.4227 151.204C67.4627 151.204 68.0227 149.604 68.0227 147.484C68.0227 145.404 67.4627 143.804 65.4227 143.804C63.3827 143.804 62.8227 145.404 62.8227 147.484ZM66.9027 147.484C66.9027 148.914 66.7527 150.164 65.4227 150.164C64.0927 150.164 63.9427 148.914 63.9427 147.484C63.9427 146.124 64.0927 144.844 65.4227 144.844C66.7527 144.844 66.9027 146.124 66.9027 147.484Z"/><rect width="80.908" height="25.969" x="121.355" y="134.74" fill="#212330" rx="3"/><path fill="#E9E9E9" d="M151.244 152.367H151.894V151.547C153.244 151.427 153.984 150.487 153.984 149.517C153.984 148.107 152.894 147.837 151.894 147.597V145.437C152.374 145.557 152.654 145.927 152.694 146.327H153.914C153.824 145.197 153.044 144.567 151.894 144.467V143.657H151.244V144.477C150.004 144.587 149.144 145.357 149.144 146.477C149.144 147.887 150.244 148.167 151.244 148.417V150.617C150.684 150.517 150.404 150.147 150.364 149.647H149.144C149.144 150.777 150.024 151.447 151.244 151.557V152.367ZM152.834 149.577C152.834 150.097 152.494 150.517 151.894 150.617V148.587C152.434 148.757 152.834 149.007 152.834 149.577ZM150.304 146.417C150.304 145.807 150.694 145.477 151.244 145.407V147.427C150.704 147.257 150.304 146.997 150.304 146.417ZM156.878 147.687C156.148 147.957 155.658 148.607 155.658 149.487C155.658 150.817 156.738 151.677 158.238 151.677C159.748 151.677 160.828 150.817 160.828 149.487C160.828 148.617 160.338 147.967 159.598 147.687C160.188 147.397 160.638 146.827 160.638 146.047C160.638 144.997 159.848 144.077 158.238 144.077C156.628 144.077 155.838 144.987 155.838 146.047C155.838 146.857 156.258 147.377 156.878 147.687ZM158.238 147.327C157.478 147.327 156.938 146.857 156.938 146.197C156.938 145.427 157.458 145.027 158.238 145.027C159.038 145.027 159.548 145.437 159.548 146.187C159.548 146.847 158.998 147.327 158.238 147.327ZM158.238 148.187C159.098 148.187 159.708 148.627 159.708 149.447C159.708 150.177 159.158 150.727 158.238 150.727C157.308 150.727 156.748 150.187 156.748 149.447C156.748 148.597 157.398 148.187 158.238 148.187ZM162.025 147.757C162.025 149.877 162.585 151.477 164.625 151.477C166.665 151.477 167.225 149.877 167.225 147.757C167.225 145.677 166.665 144.077 164.625 144.077C162.585 144.077 162.025 145.677 162.025 147.757ZM166.105 147.757C166.105 149.187 165.955 150.437 164.625 150.437C163.295 150.437 163.145 149.187 163.145 147.757C163.145 146.397 163.295 145.117 164.625 145.117C165.955 145.117 166.105 146.397 166.105 147.757ZM168.431 147.757C168.431 149.877 168.991 151.477 171.031 151.477C173.071 151.477 173.631 149.877 173.631 147.757C173.631 145.677 173.071 144.077 171.031 144.077C168.991 144.077 168.431 145.677 168.431 147.757ZM172.511 147.757C172.511 149.187 172.361 150.437 171.031 150.437C169.701 150.437 169.551 149.187 169.551 147.757C169.551 146.397 169.701 145.117 171.031 145.117C172.361 145.117 172.511 146.397 172.511 147.757Z"/><rect width="9.602" height="1.421" x="104.607" y="146.575" fill="#fff"/><rect width="16.789" height="34.175" x="12.688" y="69.168" fill="#E9E9E9"/><rect width="16.789" height="35.224" fill="#E9E9E9" transform="matrix(-1 0 0 1 204.871 68.1196)"/><rect width="16.789" height="41.519" x="51.664" y="61.824" fill="#FFD33A"/><rect width="16.789" height="34.325" x="71.152" y="69.019" fill="#FFD33A"/><rect width="16.789" height="41.519" x="110.129" y="61.824" fill="#FFD33A"/><rect width="16.789" height="33.276" x="129.617" y="70.068" fill="#FFD33A"/><rect width="16.789" height="50.153" x="149.105" y="53.191" fill="#FFD33A"/><rect width="16.789" height="50.153" x="90.641" y="53.191" fill="#FFD33A"/><rect width="16.789" height="50.153" x="32.176" y="53.191" fill="#E9E9E9"/><rect width="16.789" height="40.26" fill="#E9E9E9" transform="matrix(-1 0 0 1 185.383 63.0835)"/><circle cx="42.834" cy="111.351" r="7.057" fill="#FFD33A"/><circle cx="172.951" cy="110.401" r="7.057" fill="#FFD33A"/><rect width="120" height="2" x="48" y="110" fill="#FFD33A"/><circle cx="42.836" cy="111.352" r="2.906" fill="#fff"/><circle cx="172.953" cy="110.401" r="2.906" fill="#fff"/></svg>