<svg xmlns="http://www.w3.org/2000/svg" width="322" height="352" fill="none" viewBox="0 0 322 352"><rect width="322" height="352" fill="#14151A" rx="16"/><path fill="#A4A4BC" d="M40.8116 51.6115H43.4156V60.0396H45.0116V51.6115H47.6016V50.3096H40.8116V51.6115ZM56.568 56.1756C56.568 53.7536 54.832 52.1996 52.634 52.1996C50.436 52.1996 48.7 53.7536 48.7 56.1756C48.7 58.5976 50.366 60.1656 52.564 60.1656C54.776 60.1656 56.568 58.5976 56.568 56.1756ZM50.324 56.1756C50.324 54.4256 51.402 53.5856 52.606 53.5856C53.796 53.5856 54.93 54.4256 54.93 56.1756C54.93 57.9256 53.754 58.7796 52.564 58.7796C51.36 58.7796 50.324 57.9256 50.324 56.1756ZM58.3977 57.8976C58.3977 59.4656 59.2517 60.0396 60.6237 60.0396H61.8837V58.7096H60.9037C60.2317 58.7096 60.0077 58.4716 60.0077 57.8976V53.6276H61.8837V52.3256H60.0077V50.4076H58.3977V52.3256H57.4877V53.6276H58.3977V57.8976ZM62.8227 56.1476C62.8227 58.5276 64.4327 60.1656 66.4347 60.1656C67.7227 60.1656 68.6467 59.5496 69.1367 58.8916V60.0396H70.7467V52.3256H69.1367V53.4456C68.6607 52.8156 67.7647 52.1996 66.4627 52.1996C64.4327 52.1996 62.8227 53.7676 62.8227 56.1476ZM69.1367 56.1756C69.1367 57.8416 68.0027 58.7796 66.7987 58.7796C65.6087 58.7796 64.4607 57.8136 64.4607 56.1476C64.4607 54.4816 65.6087 53.5856 66.7987 53.5856C68.0027 53.5856 69.1367 54.5236 69.1367 56.1756ZM72.843 60.0396H74.439V49.6796H72.843V60.0396ZM85.6591 57.2536C85.6591 58.1916 85.0011 58.7376 83.9231 58.7376H81.7671V55.6996H83.8671C84.9311 55.6996 85.6591 56.2876 85.6591 57.2536ZM85.4071 53.0116C85.4071 53.9076 84.7771 54.3976 83.7411 54.3976H81.7671V51.6115H83.7411C84.7771 51.6115 85.4071 52.1296 85.4071 53.0116ZM87.2551 57.4216C87.2551 56.2596 86.4151 55.2236 85.3791 55.0416C86.3171 54.7056 87.0311 53.9916 87.0311 52.8156C87.0311 51.4436 85.9391 50.3096 83.8811 50.3096H80.1711V60.0396H84.0631C86.0511 60.0396 87.2551 58.9056 87.2551 57.4216ZM88.4575 56.1476C88.4575 58.5276 90.0675 60.1656 92.0695 60.1656C93.3575 60.1656 94.2815 59.5496 94.7715 58.8916V60.0396H96.3815V52.3256H94.7715V53.4456C94.2955 52.8156 93.3995 52.1996 92.0975 52.1996C90.0675 52.1996 88.4575 53.7676 88.4575 56.1476ZM94.7715 56.1756C94.7715 57.8416 93.6375 58.7796 92.4335 58.7796C91.2435 58.7796 90.0955 57.8136 90.0955 56.1476C90.0955 54.4816 91.2435 53.5856 92.4335 53.5856C93.6375 53.5856 94.7715 54.5236 94.7715 56.1756ZM98.4777 60.0396H100.074V49.6796H98.4777V60.0396ZM101.637 56.1476C101.637 58.5276 103.247 60.1656 105.249 60.1656C106.537 60.1656 107.461 59.5496 107.951 58.8916V60.0396H109.561V52.3256H107.951V53.4456C107.475 52.8156 106.579 52.1996 105.277 52.1996C103.247 52.1996 101.637 53.7676 101.637 56.1476ZM107.951 56.1756C107.951 57.8416 106.817 58.7796 105.613 58.7796C104.423 58.7796 103.275 57.8136 103.275 56.1476C103.275 54.4816 104.423 53.5856 105.613 53.5856C106.817 53.5856 107.951 54.5236 107.951 56.1756ZM117.131 60.0396H118.713V55.4896C118.713 53.3336 117.355 52.1996 115.549 52.1996C114.625 52.1996 113.771 52.5776 113.253 53.2076V52.3256H111.657V60.0396H113.253V55.7276C113.253 54.3136 114.023 53.5856 115.199 53.5856C116.361 53.5856 117.131 54.3136 117.131 55.7276V60.0396ZM120.217 56.1756C120.217 58.5976 121.785 60.1656 123.997 60.1656C125.887 60.1656 127.119 59.1156 127.553 57.6036H125.831C125.537 58.4016 124.949 58.8216 123.997 58.8216C122.709 58.8216 121.855 57.8696 121.855 56.1756C121.855 54.4956 122.709 53.5436 123.997 53.5436C124.949 53.5436 125.565 54.0196 125.831 54.7616H127.553C127.119 53.1376 125.887 52.1996 123.997 52.1996C121.785 52.1996 120.217 53.7676 120.217 56.1756ZM132.392 53.5436C133.582 53.5436 134.52 54.2996 134.548 55.4896H130.278C130.446 54.2716 131.314 53.5436 132.392 53.5436ZM136.004 57.7436H134.282C133.988 58.3456 133.442 58.8216 132.462 58.8216C131.286 58.8216 130.376 58.0516 130.264 56.7776H136.158C136.2 56.5116 136.214 56.2596 136.214 55.9936C136.214 53.7256 134.66 52.1996 132.462 52.1996C130.18 52.1996 128.612 53.7536 128.612 56.1756C128.612 58.5976 130.25 60.1656 132.462 60.1656C134.352 60.1656 135.57 59.0876 136.004 57.7436Z"/><path fill="#FBFBFC" d="M46.5773 141.221C46.5773 142.187 46.0173 142.873 44.7713 142.873H43.0073V139.611H44.7713C46.0173 139.611 46.5773 140.241 46.5773 141.221ZM41.4113 138.309V148.039H43.0073V144.147H44.2253L46.4653 148.039H48.3693L45.9613 144.007C47.5993 143.601 48.2153 142.369 48.2153 141.221C48.2153 139.639 47.0813 138.309 44.7713 138.309H41.4113ZM53.505 141.543C54.695 141.543 55.633 142.299 55.661 143.489H51.391C51.559 142.271 52.427 141.543 53.505 141.543ZM57.117 145.743H55.395C55.101 146.345 54.555 146.821 53.575 146.821C52.399 146.821 51.489 146.051 51.377 144.777H57.271C57.313 144.511 57.327 144.259 57.327 143.993C57.327 141.725 55.773 140.199 53.575 140.199C51.293 140.199 49.725 141.753 49.725 144.175C49.725 146.597 51.363 148.165 53.575 148.165C55.465 148.165 56.683 147.087 57.117 145.743ZM58.3657 144.175C58.3657 146.597 59.9337 148.165 62.1457 148.165C64.0357 148.165 65.2677 147.115 65.7017 145.603H63.9797C63.6857 146.401 63.0977 146.821 62.1457 146.821C60.8577 146.821 60.0037 145.869 60.0037 144.175C60.0037 142.495 60.8577 141.543 62.1457 141.543C63.0977 141.543 63.7137 142.019 63.9797 142.761H65.7017C65.2677 141.137 64.0357 140.199 62.1457 140.199C59.9337 140.199 58.3657 141.767 58.3657 144.175ZM70.5402 141.543C71.7302 141.543 72.6682 142.299 72.6962 143.489H68.4262C68.5942 142.271 69.4622 141.543 70.5402 141.543ZM74.1522 145.743H72.4302C72.1362 146.345 71.5902 146.821 70.6102 146.821C69.4342 146.821 68.5242 146.051 68.4122 144.777H74.3062C74.3482 144.511 74.3622 144.259 74.3622 143.993C74.3622 141.725 72.8082 140.199 70.6102 140.199C68.3282 140.199 66.7602 141.753 66.7602 144.175C66.7602 146.597 68.3982 148.165 70.6102 148.165C72.5002 148.165 73.7182 147.087 74.1522 145.743ZM81.4068 148.039H82.9888V143.489C82.9888 141.333 81.6308 140.199 79.8248 140.199C78.9008 140.199 78.0468 140.577 77.5288 141.207V140.325H75.9328V148.039H77.5288V143.727C77.5288 142.313 78.2988 141.585 79.4748 141.585C80.6368 141.585 81.4068 142.313 81.4068 143.727V148.039ZM85.2766 145.897C85.2766 147.465 86.1306 148.039 87.5026 148.039H88.7626V146.709H87.7826C87.1106 146.709 86.8866 146.471 86.8866 145.897V141.627H88.7626V140.325H86.8866V138.407H85.2766V140.325H84.3666V141.627H85.2766V145.897ZM93.3663 139.611H95.9703V148.039H97.5663V139.611H100.156V138.309H93.3663V139.611ZM103.369 143.979C103.369 142.341 104.097 141.851 105.273 141.851H105.679V140.199C104.587 140.199 103.817 140.675 103.369 141.445V140.325H101.773V148.039H103.369V143.979ZM106.614 144.147C106.614 146.527 108.224 148.165 110.226 148.165C111.514 148.165 112.438 147.549 112.928 146.891V148.039H114.538V140.325H112.928V141.445C112.452 140.815 111.556 140.199 110.254 140.199C108.224 140.199 106.614 141.767 106.614 144.147ZM112.928 144.175C112.928 145.841 111.794 146.779 110.59 146.779C109.4 146.779 108.252 145.813 108.252 144.147C108.252 142.481 109.4 141.585 110.59 141.585C111.794 141.585 112.928 142.523 112.928 144.175ZM122.108 148.039H123.69V143.489C123.69 141.333 122.332 140.199 120.526 140.199C119.602 140.199 118.748 140.577 118.23 141.207V140.325H116.634V148.039H118.23V143.727C118.23 142.313 119 141.585 120.176 141.585C121.338 141.585 122.108 142.313 122.108 143.727V148.039ZM131.48 145.883C131.396 143.097 127.042 143.965 127.042 142.411C127.042 141.893 127.49 141.543 128.344 141.543C129.212 141.543 129.73 142.005 129.786 142.677H131.382C131.298 141.137 130.15 140.199 128.4 140.199C126.58 140.199 125.432 141.193 125.432 142.425C125.432 145.253 129.912 144.385 129.912 145.897C129.912 146.429 129.422 146.821 128.498 146.821C127.616 146.821 127.014 146.303 126.958 145.673H125.306C125.376 147.073 126.678 148.165 128.526 148.165C130.346 148.165 131.48 147.185 131.48 145.883ZM133.204 148.039H134.8V140.325H133.204V148.039ZM134.016 139.303C134.576 139.303 135.024 138.855 135.024 138.281C135.024 137.707 134.576 137.259 134.016 137.259C133.442 137.259 132.994 137.707 132.994 138.281C132.994 138.855 133.442 139.303 134.016 139.303ZM136.364 144.175C136.364 146.597 137.932 148.165 140.144 148.165C142.034 148.165 143.266 147.115 143.7 145.603H141.978C141.684 146.401 141.096 146.821 140.144 146.821C138.856 146.821 138.002 145.869 138.002 144.175C138.002 142.495 138.856 141.543 140.144 141.543C141.096 141.543 141.712 142.019 141.978 142.761H143.7C143.266 141.137 142.034 140.199 140.144 140.199C137.932 140.199 136.364 141.767 136.364 144.175ZM145.542 145.897C145.542 147.465 146.396 148.039 147.768 148.039H149.028V146.709H148.048C147.376 146.709 147.152 146.471 147.152 145.897V141.627H149.028V140.325H147.152V138.407H145.542V140.325H144.632V141.627H145.542V145.897ZM150.499 148.039H152.095V140.325H150.499V148.039ZM151.311 139.303C151.871 139.303 152.319 138.855 152.319 138.281C152.319 137.707 151.871 137.259 151.311 137.259C150.737 137.259 150.289 137.707 150.289 138.281C150.289 138.855 150.737 139.303 151.311 139.303ZM161.541 144.175C161.541 141.753 159.805 140.199 157.607 140.199C155.409 140.199 153.673 141.753 153.673 144.175C153.673 146.597 155.339 148.165 157.537 148.165C159.749 148.165 161.541 146.597 161.541 144.175ZM155.297 144.175C155.297 142.425 156.375 141.585 157.579 141.585C158.769 141.585 159.903 142.425 159.903 144.175C159.903 145.925 158.727 146.779 157.537 146.779C156.333 146.779 155.297 145.925 155.297 144.175ZM168.592 148.039H170.174V143.489C170.174 141.333 168.816 140.199 167.01 140.199C166.086 140.199 165.232 140.577 164.714 141.207V140.325H163.118V148.039H164.714V143.727C164.714 142.313 165.484 141.585 166.66 141.585C167.822 141.585 168.592 142.313 168.592 143.727V148.039ZM177.964 145.883C177.88 143.097 173.526 143.965 173.526 142.411C173.526 141.893 173.974 141.543 174.828 141.543C175.696 141.543 176.214 142.005 176.27 142.677H177.866C177.782 141.137 176.634 140.199 174.884 140.199C173.064 140.199 171.916 141.193 171.916 142.425C171.916 145.253 176.396 144.385 176.396 145.897C176.396 146.429 175.906 146.821 174.982 146.821C174.1 146.821 173.498 146.303 173.442 145.673H171.79C171.86 147.073 173.162 148.165 175.01 148.165C176.83 148.165 177.964 147.185 177.964 145.883Z"/><path fill="#FBFBFC" d="M50.9265 100.215H52.5265V98.1896C56.1765 97.9396 58.1765 95.5646 58.1765 93.0146C58.1765 89.3146 55.1265 88.6396 52.5265 87.9646V83.2396C53.5015 83.5395 54.1015 84.2896 54.2015 85.2645H57.9765C57.7515 82.2895 55.6515 80.6146 52.5265 80.3646V78.3395H50.9265V80.3646C47.6765 80.6146 45.3265 82.5396 45.3265 85.4895C45.3265 89.1896 48.3515 89.9146 50.9265 90.5646V95.3396C49.7765 95.0896 49.1765 94.3146 49.0765 93.1646H45.3265C45.4015 96.1646 47.7015 97.8896 50.9265 98.1646V100.215ZM54.5515 93.1646C54.5515 94.2896 53.8015 95.1646 52.5265 95.3896V91.0146C53.7015 91.4146 54.5515 91.9896 54.5515 93.1646ZM48.9765 85.3146C48.9765 84.0396 49.7765 83.3396 50.9265 83.1646V87.4896C49.7765 87.0896 48.9765 86.4896 48.9765 85.3146ZM75.5979 98.0396H79.1979V79.8145H73.1729V83.0396H75.5979V98.0396ZM95.3556 84.3645C95.0806 81.7895 93.3306 79.3895 89.6056 79.3895C84.9806 79.3895 83.0556 82.6896 83.0556 88.6396C83.0556 94.2896 84.4056 98.0896 89.8056 98.0896C93.7056 98.0896 95.8806 95.5146 95.8806 91.9896C95.8806 88.1896 93.6056 86.0396 90.3556 86.0396C88.5806 86.0396 86.9306 86.7896 86.1056 88.1646C86.1556 83.9646 87.2056 82.2645 89.4806 82.2645C91.0556 82.2645 91.7806 83.0146 92.1056 84.3645H95.3556ZM89.5556 88.9146C91.5806 88.9146 92.5556 90.1896 92.5556 92.0646C92.5556 93.9396 91.4306 95.1146 89.6306 95.1146C87.5806 95.1146 86.4306 93.8896 86.4306 91.9396C86.4306 89.8646 87.9306 88.9146 89.5556 88.9146ZM97.6218 101.64H99.8968L102.997 94.1896H99.2968L97.6218 101.64ZM105.019 88.6896C105.019 94.0146 106.619 97.9896 111.769 97.9896C116.919 97.9896 118.519 94.0146 118.519 88.6896C118.519 83.4145 116.919 79.4646 111.769 79.4646C106.619 79.4646 105.019 83.4145 105.019 88.6896ZM115.069 88.6896C115.069 91.9396 114.719 94.7396 111.769 94.7396C108.819 94.7396 108.469 91.9396 108.469 88.6896C108.469 85.5646 108.819 82.7145 111.769 82.7145C114.719 82.7145 115.069 85.5646 115.069 88.6896ZM121.181 88.6896C121.181 94.0146 122.781 97.9896 127.931 97.9896C133.081 97.9896 134.681 94.0146 134.681 88.6896C134.681 83.4145 133.081 79.4646 127.931 79.4646C122.781 79.4646 121.181 83.4145 121.181 88.6896ZM131.231 88.6896C131.231 91.9396 130.881 94.7396 127.931 94.7396C124.981 94.7396 124.631 91.9396 124.631 88.6896C124.631 85.5646 124.981 82.7145 127.931 82.7145C130.881 82.7145 131.231 85.5646 131.231 88.6896ZM137.343 88.6896C137.343 94.0146 138.943 97.9896 144.093 97.9896C149.243 97.9896 150.843 94.0146 150.843 88.6896C150.843 83.4145 149.243 79.4646 144.093 79.4646C138.943 79.4646 137.343 83.4145 137.343 88.6896ZM147.393 88.6896C147.393 91.9396 147.043 94.7396 144.093 94.7396C141.143 94.7396 140.793 91.9396 140.793 88.6896C140.793 85.5646 141.143 82.7145 144.093 82.7145C147.043 82.7145 147.393 85.5646 147.393 88.6896ZM157.58 96.1646C157.58 95.0146 156.68 94.1146 155.455 94.1146C154.18 94.1146 153.28 95.0146 153.28 96.1646C153.28 97.3146 154.18 98.2146 155.455 98.2146C156.68 98.2146 157.58 97.3146 157.58 96.1646ZM159.999 88.6896C159.999 94.0146 161.599 97.9896 166.749 97.9896C171.899 97.9896 173.499 94.0146 173.499 88.6896C173.499 83.4145 171.899 79.4646 166.749 79.4646C161.599 79.4646 159.999 83.4145 159.999 88.6896ZM170.049 88.6896C170.049 91.9396 169.699 94.7396 166.749 94.7396C163.799 94.7396 163.449 91.9396 163.449 88.6896C163.449 85.5646 163.799 82.7145 166.749 82.7145C169.699 82.7145 170.049 85.5646 170.049 88.6896ZM176.161 88.6896C176.161 94.0146 177.761 97.9896 182.911 97.9896C188.061 97.9896 189.661 94.0146 189.661 88.6896C189.661 83.4145 188.061 79.4646 182.911 79.4646C177.761 79.4646 176.161 83.4145 176.161 88.6896ZM186.211 88.6896C186.211 91.9396 185.861 94.7396 182.911 94.7396C179.961 94.7396 179.611 91.9396 179.611 88.6896C179.611 85.5646 179.961 82.7145 182.911 82.7145C185.861 82.7145 186.211 85.5646 186.211 88.6896Z"/><rect width="258" height="68" x="31" y="167.039" fill="#212330" rx="9"/><path fill="#C1C1D1" d="M108.835 191.281C108.835 187.725 103.683 189.097 103.683 186.899C103.683 185.961 104.397 185.513 105.321 185.541C106.329 185.569 106.903 186.171 106.959 186.829H108.723C108.583 185.163 107.267 184.183 105.405 184.183C103.417 184.183 102.059 185.247 102.059 186.955C102.059 190.539 107.225 189.013 107.225 191.365C107.225 192.191 106.595 192.793 105.475 192.793C104.369 192.793 103.809 192.149 103.739 191.351H102.031C102.031 193.073 103.529 194.137 105.475 194.137C107.645 194.137 108.835 192.737 108.835 191.281ZM112.314 187.459V186.325H110.718V197.707H112.314V192.919C112.818 193.521 113.728 194.165 115.002 194.165C117.032 194.165 118.628 192.527 118.628 190.147C118.628 187.767 117.032 186.199 115.002 186.199C113.742 186.199 112.804 186.815 112.314 187.459ZM117.004 190.147C117.004 191.813 115.856 192.779 114.652 192.779C113.462 192.779 112.314 191.841 112.314 190.175C112.314 188.523 113.462 187.585 114.652 187.585C115.856 187.585 117.004 188.481 117.004 190.147ZM127.556 190.175C127.556 187.753 125.82 186.199 123.622 186.199C121.424 186.199 119.688 187.753 119.688 190.175C119.688 192.597 121.354 194.165 123.552 194.165C125.764 194.165 127.556 192.597 127.556 190.175ZM121.312 190.175C121.312 188.425 122.39 187.585 123.594 187.585C124.784 187.585 125.918 188.425 125.918 190.175C125.918 191.925 124.742 192.779 123.552 192.779C122.348 192.779 121.312 191.925 121.312 190.175ZM129.386 191.897C129.386 193.465 130.24 194.039 131.612 194.039H132.872V192.709H131.892C131.22 192.709 130.996 192.471 130.996 191.897V187.627H132.872V186.325H130.996V184.407H129.386V186.325H128.476V187.627H129.386V191.897ZM134.343 194.039H135.939V186.325H134.343V194.039ZM135.155 185.303C135.715 185.303 136.163 184.855 136.163 184.281C136.163 183.707 135.715 183.259 135.155 183.259C134.581 183.259 134.133 183.707 134.133 184.281C134.133 184.855 134.581 185.303 135.155 185.303ZM138.23 194.039H139.84V187.627H141.268V186.325H139.84V185.779C139.84 184.897 140.176 184.561 141.156 184.561V183.231C139.14 183.231 138.23 184.001 138.23 185.779V186.325H137.32V187.627H138.23V194.039ZM145.721 192.205L143.551 186.325H141.773L144.811 193.913L143.243 197.665H144.895L149.627 186.325H147.975L145.721 192.205Z"/><path fill="#96979C" d="M102.428 215.939H107.288V214.989H104.118C105.288 213.919 107.088 212.569 107.088 210.799C107.088 209.489 106.248 208.599 104.768 208.599C103.478 208.599 102.458 209.369 102.418 210.949H103.518C103.548 210.129 103.978 209.569 104.778 209.569C105.628 209.569 105.958 210.089 105.958 210.849C105.958 212.279 104.148 213.599 102.428 215.109V215.939ZM108.199 215.939H113.059V214.989H109.889C111.059 213.919 112.859 212.569 112.859 210.799C112.859 209.489 112.019 208.599 110.539 208.599C109.249 208.599 108.229 209.369 108.189 210.949H109.289C109.319 210.129 109.749 209.569 110.549 209.569C111.399 209.569 111.729 210.089 111.729 210.849C111.729 212.279 109.919 213.599 108.199 215.109V215.939ZM114.071 217.789H115.191L117.911 206.599H116.781L114.071 217.789ZM119.978 216.039H121.128V208.749H119.048V209.789H119.978V216.039ZM122.694 212.299C122.694 214.419 123.254 216.019 125.294 216.019C127.334 216.019 127.894 214.419 127.894 212.299C127.894 210.219 127.334 208.619 125.294 208.619C123.254 208.619 122.694 210.219 122.694 212.299ZM126.774 212.299C126.774 213.729 126.624 214.979 125.294 214.979C123.964 214.979 123.814 213.729 123.814 212.299C123.814 210.939 123.964 209.659 125.294 209.659C126.624 209.659 126.774 210.939 126.774 212.299ZM129.11 217.789H130.23L132.95 206.599H131.82L129.11 217.789ZM134.147 215.939H139.007V214.989H135.837C137.007 213.919 138.807 212.569 138.807 210.799C138.807 209.489 137.967 208.599 136.487 208.599C135.197 208.599 134.177 209.369 134.137 210.949H135.237C135.267 210.129 135.697 209.569 136.497 209.569C137.347 209.569 137.677 210.089 137.677 210.849C137.677 212.279 135.867 213.599 134.147 215.109V215.939ZM140.008 212.299C140.008 214.419 140.568 216.019 142.608 216.019C144.648 216.019 145.208 214.419 145.208 212.299C145.208 210.219 144.648 208.619 142.608 208.619C140.568 208.619 140.008 210.219 140.008 212.299ZM144.088 212.299C144.088 213.729 143.938 214.979 142.608 214.979C141.278 214.979 141.128 213.729 141.128 212.299C141.128 210.939 141.278 209.659 142.608 209.659C143.938 209.659 144.088 210.939 144.088 212.299ZM146.324 215.939H151.184V214.989H148.014C149.184 213.919 150.984 212.569 150.984 210.799C150.984 209.489 150.144 208.599 148.664 208.599C147.374 208.599 146.354 209.369 146.314 210.949H147.414C147.444 210.129 147.874 209.569 148.674 209.569C149.524 209.569 149.854 210.089 149.854 210.849C149.854 212.279 148.044 213.599 146.324 215.109V215.939ZM152.966 216.039H154.116V208.749H152.036V209.789H152.966V216.039Z"/><path fill="#0EC37D" d="M225.159 201.899H229.269V200.939H225.159V201.899ZM232.839 205.909H233.489V205.089C234.839 204.969 235.579 204.029 235.579 203.059C235.579 201.649 234.489 201.379 233.489 201.139V198.979C233.969 199.099 234.249 199.469 234.289 199.869H235.509C235.419 198.739 234.639 198.109 233.489 198.009V197.199H232.839V198.019C231.599 198.129 230.739 198.899 230.739 200.019C230.739 201.429 231.839 201.709 232.839 201.959V204.159C232.279 204.059 231.999 203.689 231.959 203.189H230.739C230.739 204.319 231.619 204.989 232.839 205.099V205.909ZM234.429 203.119C234.429 203.639 234.089 204.059 233.489 204.159V202.129C234.029 202.299 234.429 202.549 234.429 203.119ZM231.899 199.959C231.899 199.349 232.289 199.019 232.839 198.949V200.969C232.299 200.799 231.899 200.539 231.899 199.959ZM239.75 204.939H244.61V203.989H241.44C242.61 202.919 244.41 201.569 244.41 199.799C244.41 198.489 243.57 197.599 242.09 197.599C240.8 197.599 239.78 198.369 239.74 199.949H240.84C240.87 199.129 241.3 198.569 242.1 198.569C242.95 198.569 243.28 199.089 243.28 199.849C243.28 201.279 241.47 202.599 239.75 204.109V204.939ZM249.092 205.039H250.212V203.519H251.142V202.529H250.212V197.839H248.832L245.472 202.659V203.519H249.092V205.039ZM246.782 202.529L249.142 198.999V202.529H246.782ZM253.416 204.379C253.416 203.969 253.096 203.649 252.696 203.649C252.286 203.649 251.966 203.969 251.966 204.379C251.966 204.789 252.286 205.109 252.696 205.109C253.096 205.109 253.416 204.789 253.416 204.379ZM254.498 201.299C254.498 203.419 255.058 205.019 257.098 205.019C259.138 205.019 259.698 203.419 259.698 201.299C259.698 199.219 259.138 197.619 257.098 197.619C255.058 197.619 254.498 199.219 254.498 201.299ZM258.578 201.299C258.578 202.729 258.428 203.979 257.098 203.979C255.768 203.979 255.618 202.729 255.618 201.299C255.618 199.939 255.768 198.659 257.098 198.659C258.428 198.659 258.578 199.939 258.578 201.299ZM260.905 201.299C260.905 203.419 261.465 205.019 263.505 205.019C265.545 205.019 266.105 203.419 266.105 201.299C266.105 199.219 265.545 197.619 263.505 197.619C261.465 197.619 260.905 199.219 260.905 201.299ZM264.985 201.299C264.985 202.729 264.835 203.979 263.505 203.979C262.175 203.979 262.025 202.729 262.025 201.299C262.025 199.939 262.175 198.659 263.505 198.659C264.835 198.659 264.985 199.939 264.985 201.299Z"/><rect width="39" height="39" x="46" y="182.039" fill="#0EC37D" rx="8"/><path fill="#FCFCFD" d="M65.5 191C62.7152 191 60.0445 192.054 58.0754 193.929C56.1062 195.804 55 198.348 55 201C55 203.652 56.1062 206.196 58.0754 208.071C60.0445 209.946 62.7152 211 65.5 211C68.2848 211 70.9555 209.946 72.9246 208.071C74.8938 206.196 76 203.652 76 201C76 198.348 74.8938 195.804 72.9246 193.929C70.9555 192.054 68.2848 191 65.5 191V191ZM70.3156 205.423C70.2708 205.492 70.2119 205.553 70.1424 205.602C70.0728 205.65 69.994 205.685 69.9103 205.704C69.8267 205.723 69.7399 205.726 69.6549 205.713C69.57 205.7 69.4885 205.672 69.4152 205.629C66.949 204.195 63.8462 203.87 60.1909 204.666C60.0216 204.703 59.8438 204.674 59.6968 204.586C59.5497 204.498 59.4454 204.358 59.4067 204.197C59.3681 204.036 59.3983 203.866 59.4907 203.726C59.5831 203.586 59.7302 203.487 59.8996 203.45C63.9001 202.58 67.3309 202.954 70.0977 204.565C70.2457 204.651 70.3518 204.79 70.3926 204.951C70.4334 205.112 70.4057 205.281 70.3156 205.423ZM71.6005 202.7C71.4868 202.876 71.3043 203.002 71.0931 203.05C70.882 203.098 70.6594 203.064 70.4744 202.956C67.6525 201.305 63.3501 200.826 60.0111 201.791C59.8079 201.837 59.5939 201.808 59.4128 201.709C59.2316 201.609 59.0971 201.448 59.0364 201.258C58.9758 201.067 58.9938 200.862 59.0866 200.684C59.1794 200.506 59.3402 200.368 59.536 200.299C63.3488 199.198 68.0896 199.731 71.3301 201.627C71.5153 201.736 71.6478 201.909 71.6985 202.11C71.7492 202.312 71.714 202.524 71.6005 202.7ZM71.7108 199.865C68.3271 197.95 62.7437 197.774 59.5124 198.707C59.2631 198.779 58.9941 198.754 58.7645 198.637C58.5348 198.52 58.3633 198.321 58.2878 198.084C58.2123 197.846 58.2388 197.59 58.3617 197.371C58.4845 197.153 58.6935 196.989 58.9427 196.918C62.6506 195.846 68.8167 196.052 72.7135 198.255C72.9377 198.382 73.0998 198.588 73.1643 198.828C73.2288 199.069 73.1903 199.324 73.0574 199.538C72.9244 199.751 72.7078 199.905 72.4553 199.967C72.2027 200.028 71.9349 199.992 71.7108 199.865Z"/><rect width="258" height="69" x="31" y="250.039" fill="#212330" rx="9"/><path fill="#C1C1D1" d="M108.469 268.295V275.547L103.667 268.295H102.071V278.039H103.667V270.773L108.469 278.039H110.065V268.295H108.469ZM115.409 271.543C116.599 271.543 117.537 272.299 117.565 273.489H113.295C113.463 272.271 114.331 271.543 115.409 271.543ZM119.021 275.743H117.299C117.005 276.345 116.459 276.821 115.479 276.821C114.303 276.821 113.393 276.051 113.281 274.777H119.175C119.217 274.511 119.231 274.259 119.231 273.993C119.231 271.725 117.677 270.199 115.479 270.199C113.197 270.199 111.629 271.753 111.629 274.175C111.629 276.597 113.267 278.165 115.479 278.165C117.369 278.165 118.587 277.087 119.021 275.743ZM121.054 275.897C121.054 277.465 121.908 278.039 123.28 278.039H124.54V276.709H123.56C122.888 276.709 122.664 276.471 122.664 275.897V271.627H124.54V270.325H122.664V268.407H121.054V270.325H120.144V271.627H121.054V275.897ZM126.207 278.039H127.817V271.627H129.245V270.325H127.817V269.779C127.817 268.897 128.153 268.561 129.133 268.561V267.231C127.117 267.231 126.207 268.001 126.207 269.779V270.325H125.297V271.627H126.207V278.039ZM130.659 278.039H132.255V267.679H130.659V278.039ZM134.351 278.039H135.947V270.325H134.351V278.039ZM135.163 269.303C135.723 269.303 136.171 268.855 136.171 268.281C136.171 267.707 135.723 267.259 135.163 267.259C134.589 267.259 134.141 267.707 134.141 268.281C134.141 268.855 134.589 269.303 135.163 269.303ZM142.032 278.039H143.838L141.346 274.133L143.838 270.325H142.172L140.604 272.943L138.938 270.325H137.132L139.624 274.245L137.132 278.039H138.798L140.366 275.421L142.032 278.039Z"/><path fill="#96979C" d="M102.428 299.939H107.288V298.989H104.118C105.288 297.919 107.088 296.569 107.088 294.799C107.088 293.489 106.248 292.599 104.768 292.599C103.478 292.599 102.458 293.369 102.418 294.949H103.518C103.548 294.129 103.978 293.569 104.778 293.569C105.628 293.569 105.958 294.089 105.958 294.849C105.958 296.279 104.148 297.599 102.428 299.109V299.939ZM108.199 299.939H113.059V298.989H109.889C111.059 297.919 112.859 296.569 112.859 294.799C112.859 293.489 112.019 292.599 110.539 292.599C109.249 292.599 108.229 293.369 108.189 294.949H109.289C109.319 294.129 109.749 293.569 110.549 293.569C111.399 293.569 111.729 294.089 111.729 294.849C111.729 296.279 109.919 297.599 108.199 299.109V299.939ZM114.071 301.789H115.191L117.911 290.599H116.781L114.071 301.789ZM119.978 300.039H121.128V292.749H119.048V293.789H119.978V300.039ZM122.694 296.299C122.694 298.419 123.254 300.019 125.294 300.019C127.334 300.019 127.894 298.419 127.894 296.299C127.894 294.219 127.334 292.619 125.294 292.619C123.254 292.619 122.694 294.219 122.694 296.299ZM126.774 296.299C126.774 297.729 126.624 298.979 125.294 298.979C123.964 298.979 123.814 297.729 123.814 296.299C123.814 294.939 123.964 293.659 125.294 293.659C126.624 293.659 126.774 294.939 126.774 296.299ZM129.11 301.789H130.23L132.95 290.599H131.82L129.11 301.789ZM134.147 299.939H139.007V298.989H135.837C137.007 297.919 138.807 296.569 138.807 294.799C138.807 293.489 137.967 292.599 136.487 292.599C135.197 292.599 134.177 293.369 134.137 294.949H135.237C135.267 294.129 135.697 293.569 136.497 293.569C137.347 293.569 137.677 294.089 137.677 294.849C137.677 296.279 135.867 297.599 134.147 299.109V299.939ZM140.008 296.299C140.008 298.419 140.568 300.019 142.608 300.019C144.648 300.019 145.208 298.419 145.208 296.299C145.208 294.219 144.648 292.619 142.608 292.619C140.568 292.619 140.008 294.219 140.008 296.299ZM144.088 296.299C144.088 297.729 143.938 298.979 142.608 298.979C141.278 298.979 141.128 297.729 141.128 296.299C141.128 294.939 141.278 293.659 142.608 293.659C143.938 293.659 144.088 294.939 144.088 296.299ZM146.324 299.939H151.184V298.989H148.014C149.184 297.919 150.984 296.569 150.984 294.799C150.984 293.489 150.144 292.599 148.664 292.599C147.374 292.599 146.354 293.369 146.314 294.949H147.414C147.444 294.129 147.874 293.569 148.674 293.569C149.524 293.569 149.854 294.089 149.854 294.849C149.854 296.279 148.044 297.599 146.324 299.109V299.939ZM152.966 300.039H154.116V292.749H152.036V293.789H152.966V300.039Z"/><path fill="#0EC37D" d="M225.11 285.899H229.22V284.939H225.11V285.899ZM232.79 289.909H233.44V289.089C234.79 288.969 235.53 288.029 235.53 287.059C235.53 285.649 234.44 285.379 233.44 285.139V282.979C233.92 283.099 234.2 283.469 234.24 283.869H235.46C235.37 282.739 234.59 282.109 233.44 282.009V281.199H232.79V282.019C231.55 282.129 230.69 282.899 230.69 284.019C230.69 285.429 231.79 285.709 232.79 285.959V288.159C232.23 288.059 231.95 287.689 231.91 287.189H230.69C230.69 288.319 231.57 288.989 232.79 289.099V289.909ZM234.38 287.119C234.38 287.639 234.04 288.059 233.44 288.159V286.129C233.98 286.299 234.38 286.549 234.38 287.119ZM231.85 283.959C231.85 283.349 232.24 283.019 232.79 282.949V284.969C232.25 284.799 231.85 284.539 231.85 283.959ZM239.771 283.549H240.881C240.951 283.039 241.321 282.559 242.121 282.559C242.901 282.559 243.311 282.979 243.311 283.609C243.311 284.389 242.681 284.689 241.651 284.699H241.381V285.639H241.641C242.831 285.639 243.451 285.969 243.451 286.929C243.451 287.609 243.031 288.129 242.181 288.129C241.321 288.129 240.821 287.609 240.771 286.929H239.671C239.741 288.359 240.811 289.079 242.191 289.079C243.711 289.079 244.531 288.199 244.531 287.039C244.531 286.029 244.041 285.399 243.281 285.169V285.129C243.851 284.939 244.401 284.349 244.401 283.479C244.401 282.419 243.611 281.579 242.161 281.579C240.831 281.579 239.851 282.289 239.771 283.549ZM245.729 285.299C245.729 287.419 246.289 289.019 248.329 289.019C250.369 289.019 250.929 287.419 250.929 285.299C250.929 283.219 250.369 281.619 248.329 281.619C246.289 281.619 245.729 283.219 245.729 285.299ZM249.809 285.299C249.809 286.729 249.659 287.979 248.329 287.979C246.999 287.979 246.849 286.729 246.849 285.299C246.849 283.939 246.999 282.659 248.329 282.659C249.659 282.659 249.809 283.939 249.809 285.299ZM253.465 288.379C253.465 287.969 253.145 287.649 252.745 287.649C252.335 287.649 252.015 287.969 252.015 288.379C252.015 288.789 252.335 289.109 252.745 289.109C253.145 289.109 253.465 288.789 253.465 288.379ZM254.547 285.299C254.547 287.419 255.107 289.019 257.147 289.019C259.187 289.019 259.747 287.419 259.747 285.299C259.747 283.219 259.187 281.619 257.147 281.619C255.107 281.619 254.547 283.219 254.547 285.299ZM258.627 285.299C258.627 286.729 258.477 287.979 257.147 287.979C255.817 287.979 255.667 286.729 255.667 285.299C255.667 283.939 255.817 282.659 257.147 282.659C258.477 282.659 258.627 283.939 258.627 285.299ZM260.954 285.299C260.954 287.419 261.514 289.019 263.554 289.019C265.594 289.019 266.154 287.419 266.154 285.299C266.154 283.219 265.594 281.619 263.554 281.619C261.514 281.619 260.954 283.219 260.954 285.299ZM265.034 285.299C265.034 286.729 264.884 287.979 263.554 287.979C262.224 287.979 262.074 286.729 262.074 285.299C262.074 283.939 262.224 282.659 263.554 282.659C264.884 282.659 265.034 283.939 265.034 285.299Z"/><rect width="39" height="39" x="46" y="265.039" fill="#FB0727" rx="8"/><g clip-path="url(#clip0_1_299)"><path fill="#FCFCFD" d="M59.6 276.003L63.1623 286.099V286.093L63.4435 286.887C65.0107 291.319 65.8516 293.695 65.8544 293.698L66.382 293.73C67.2494 293.766 68.3244 293.865 69.1389 293.961C69.3262 293.985 69.4876 293.991 69.4994 293.985L65.6412 283.043L63.8221 277.904C63.6083 277.291 63.3916 276.678 63.1719 276.067L63.1482 276H59.6034L59.6 276.003ZM65.9804 276.009L65.9714 279.988L65.9658 283.969L65.6379 283.043L65.216 291.9C65.6322 293.075 65.8544 293.701 65.8578 293.704C65.8612 293.707 66.098 293.724 66.382 293.736C67.2522 293.775 68.3244 293.871 69.1417 293.971C69.329 293.991 69.4932 294 69.5022 293.991C69.514 293.985 69.5169 289.928 69.5169 284.985L69.5112 276.009H65.9804ZM59.6 276.003V284.994C59.6 289.939 59.6056 293.991 59.6118 293.997C59.618 294.002 59.9223 293.973 60.2913 293.932C60.6674 293.885 61.0443 293.845 61.4219 293.812C61.8117 293.773 62.9744 293.697 63.1094 293.697C63.1477 293.697 63.1505 293.496 63.1561 289.889L63.1617 286.077L63.4458 286.874L63.5454 287.156L63.9729 278.305L63.8294 277.895L63.1465 276.002L59.6 276.003Z"/></g><defs><clipPath id="clip0_1_299"><rect width="18" height="18" fill="#fff" transform="translate(56 276)"/></clipPath></defs></svg>