<svg xmlns="http://www.w3.org/2000/svg" width="486" height="497" fill="none" viewBox="0 0 486 497"><path fill="#12141A" d="M216.401 403.073C207.664 394.168 187.338 375.405 175.934 371.599C187.742 385.731 215.989 422.81 234.514 458.075C223.537 442.78 199.581 409.876 191.564 400.617C202.716 416.856 226.575 454.3 232.794 474.167L220.909 461.034C219.96 461.568 218.354 463.358 219.522 466.248C220.689 469.138 197.634 440.229 185.961 425.413L216.166 477.784C214.983 477.059 211.94 475.363 209.24 474.379C205.865 473.148 215.43 490.715 213.742 490.1C212.392 489.608 204.402 479.362 200.575 474.3C196.498 466.53 188.646 451.361 187.078 447.597C188.275 451.556 193.084 468.003 198.659 476.681C205.305 487.025 175.4 440.483 166.258 433.63C163.809 428.923 156.719 417.04 147.957 407.158L145.442 397.881L106.923 347.319L73.0817 313.421C70.4038 311.712 64.4748 306.06 62.1814 297.128C56.5325 292.135 46.5952 281.854 52.0369 280.67C58.839 279.19 71.2507 295.155 68.6838 289.819C66.1168 284.483 66.169 280.542 70.2997 281.609C74.4305 282.675 57.8355 269.585 65.5173 272.825C71.6628 275.418 86.7816 284.245 93.5728 288.334C97.3582 291.767 106.43 299.094 112.435 300.931C118.629 307.442 124.315 311.51 97.5081 275.689C92.8495 271.791 82.0015 251.557 75.8835 244.046L57.4002 238.56C59.4734 243.168 61.6228 247.149 58.5004 247.828C53.7828 248.854 48.086 244.626 49.4112 236.188L43.4171 234.409C43.7886 249.064 57.255 270.693 46.9354 253.291C36.6157 235.888 18.8945 208.308 25.2203 200.055L29.6111 181.417L22.1982 200.713L20.5823 208.923L19.175 201.37L13.6565 205.518L9.80587 197.514L5.27114 198.501L3.51199 189.06C3.16016 187.172 3.29353 162.583 30.7512 166.434C31.0327 167.944 36.4121 165.857 39.0666 164.625C45.8568 168.714 60.3339 177.484 63.9213 179.847C68.1014 182.601 70.0011 184.143 75.566 185.568L76.3135 183.046C66.7659 175.692 26.5456 128.381 7.62885 105.645L45.6 140.609L0.560656 84.5884L23.5014 102.192L22.9737 99.3599L59.1342 128.823C61.7121 128.59 63.4891 124.339 49.9735 109.204C36.458 94.0688 27.4889 85.6068 24.6937 83.2678L27.769 78.6693L21.8791 68.1622C39.9572 87.8062 77.8256 128.687 84.6746 135.055L52.0976 91.0594C63.6711 103.932 89.4725 131.261 100.09 137.596C110.708 143.931 114.066 149.291 114.417 151.179C122.675 163.136 142.191 187.969 154.2 191.643C155.712 191.314 170.144 197.016 158.664 181.831C149.479 169.683 142.953 163.637 140.837 162.132C143.55 161.215 147.857 158.444 143.385 154.701C138.913 150.959 128.36 141.597 123.643 137.384L123.591 141.325C120.796 138.986 115.357 134.275 115.962 134.143C116.566 134.012 119.471 134.69 120.848 135.045L122.412 130.775C116.353 123.58 103.246 109.796 99.2952 112.227C94.3565 115.267 97.4839 106.727 89.5547 93.7167C81.6254 80.7062 82.505 85.4267 75.8593 75.084C69.2136 64.7413 65.8907 59.57 77.4751 66.8735C86.7426 72.7163 92.7516 79.923 94.5976 82.7959L92.4866 71.4667L96.7933 73.4769L94.4543 65.1445L104.931 70.7242C103.637 73.6254 102.373 78.9431 107.674 77.004C113.088 80.738 124.254 88.329 125.604 88.8212C126.954 89.3135 133.621 95.2638 136.785 98.1774C142.668 104.429 155.74 118.024 160.957 122.39C166.175 126.756 172.061 132.745 174.353 135.194L176.848 131.704L196.59 149.021L194.655 138.636L211.653 149.673L201.105 135.268L234.47 162.392L255.724 179.381L267.393 166.036L264.07 160.865L259.483 165.792L240.497 148.31L235.787 148.353L168.965 72.5118C165.7 67.6552 157.917 58.8043 152.898 62.2539C147.878 65.7036 148.825 61.5026 149.927 58.9708L145.444 56.0165L142.877 50.6807L139.45 53.3911L129.253 40.8738L127.494 31.4327C124.178 30.5169 118.266 28.332 121.148 26.9191C124.751 25.1529 126.491 21.8273 122.536 21.7053C119.372 21.6077 116.565 22.0218 115.558 22.241C115.089 19.7234 114.755 14.5567 117.174 14.0306C120.197 13.3729 135.84 12.9169 134.785 7.25224C133.94 2.72062 143.033 0.873348 147.685 0.516255L151.764 5.52316L158.742 4.98746C169.212 6.31172 197.368 18.9825 226.229 59.0718C262.304 109.183 277.107 129.54 292.998 138.854C297.509 134.925 304.436 125.952 296.054 121.489C287.673 117.025 296.089 118.861 301.345 120.338L302.361 100.469L266.409 55.2424L303.045 91.4789L261.255 31.8043L280.769 52.1185L284.424 46.4114C287.706 49.9545 296.611 59.4782 305.977 69.229C306.909 70.0086 320.129 81.8682 285.688 36.3127C285.548 35.5575 281.199 29.103 279.043 25.9701L284.861 27.6515L281.01 19.6478L297.957 34.6261C298.561 36.4595 300.242 38.4514 302.14 31.7514L316.096 30.68L472.544 224.555C492.072 267.46 503.507 339.239 393.016 283.115L387.303 282.972C383.854 286.185 388.852 299.05 392.704 306.76L386.068 302.801L389.804 312.303L394.658 329.912L389.368 331.063L391.127 340.504L396.137 346.29C397.69 347.59 400.972 351.133 401.675 354.909L405.193 373.791L410.047 391.4L410.575 394.232L408.379 403.551L398.606 401.748L403.512 415.416C400.911 412.708 395.531 406.347 394.827 402.57C394.124 398.794 388.31 387.288 385.491 382.007L383.699 389.273L377.633 377.822C378.009 382.652 378.972 393.445 379.816 397.977C380.66 402.509 350.831 357.784 335.811 334.855L352.145 367.649L357.331 374.38L361.41 379.387L390.371 454.624L391.602 461.232L393.042 452.077C395.611 457.958 400.555 469.182 401.057 469.963L401.095 469.973C400.919 469.029 405.454 468.043 405.982 470.875C406.404 473.141 406.64 482.848 406.705 487.418C408.03 491.714 405.793 499.405 386.247 495.798C366.7 492.191 360.806 491.509 360.302 491.619L357.331 488.335L351.865 488.543L346.855 482.757L337.485 478.901L328.449 464.166L323.386 462.319C322.648 461.171 320.391 458.062 317.268 454.81C313.365 450.746 299.038 437.162 296.015 437.82C293.596 438.346 291.784 434.812 291.18 432.979L289.597 424.482L277.257 417.343C278.241 414.181 278.837 408.941 273.354 413.279L263.686 403.595L255.124 395.632L250.765 397.565C248.82 392.749 244.056 383.503 240.569 385.047L240.517 388.988L232.659 384.803L231.395 394.902L235.93 393.916L239.376 403.972L251.612 418.993L231.343 398.843L224.873 389.444C222.816 388.254 218.844 386.63 219.407 389.651C219.97 392.672 223.333 396.656 224.945 398.27C226.128 398.994 227.472 400.861 223.381 402.538C219.289 404.215 217.023 403.594 216.401 403.073Z"/></svg>