<svg xmlns="http://www.w3.org/2000/svg" width="185" height="193" fill="none" viewBox="0 0 185 193"><path fill="#12141A" d="M69.9783 35.5127C73.973 38.5826 82.9466 44.9435 86.8834 45.8278C81.1421 40.8416 66.8728 27.606 55.726 14.5529C61.4156 20.0501 73.7556 31.8574 77.5986 35.1086C71.7036 29.244 58.6501 15.6178 53.5964 8.02914L59.1965 12.6121C59.3851 12.3459 59.5595 11.5412 58.7479 10.4521C57.9364 9.363 69.3614 19.6247 75.1754 24.8917L57.8382 5.65703C58.3006 5.88057 59.462 6.3883 60.4076 6.63095C61.5897 6.93426 55.9391 0.450835 56.5302 0.602488C57.003 0.723811 60.9998 4.37076 62.9391 6.17907C65.3938 9.05562 70.1547 14.6768 71.2256 16.0926C70.2309 14.5782 66.1455 8.2767 63.107 5.12143C59.485 1.36033 75.7826 18.2833 79.5593 20.5108C81.0405 22.2541 85.043 26.6054 89.2046 30.0641L91.4515 33.6293L110.91 51.6779L126.285 63.3307C127.343 63.8643 129.989 65.7913 132.116 69.2312C134.573 70.9105 139.142 74.4631 137.753 75.2395C136.018 76.2099 129.802 70.525 131.42 72.5132C133.038 74.5014 133.667 76.0784 132.292 75.8829C130.917 75.6874 137.879 79.9907 135.117 79.1246C132.907 78.4317 127.071 75.7491 124.428 74.4944C122.767 73.334 118.933 70.9136 116.888 70.5145C114.023 68.259 111.706 66.9513 125.351 79.7645C127.342 81.0619 133.801 88.5394 136.807 91.1982L143.076 92.359C141.72 90.6338 140.445 89.1637 141.241 88.7183C142.445 88.0452 144.792 89.4165 145.785 92.8607L147.818 93.2372C145.316 87.4042 137.867 79.5155 143.71 85.8912C149.553 92.2669 159.211 102.295 158.721 105.945L160.49 113.634L159.492 105.514L158.62 102.144L160.263 105.082L161.189 103.118L163.616 106.1L164.773 105.453L166.827 109.126C167.238 109.861 171.217 119.69 162.607 119.683C162.279 119.095 161.056 120.229 160.486 120.869C157.844 119.614 152.203 116.919 150.774 116.175C149.109 115.308 148.305 114.798 146.455 114.539L146.65 115.588C150.627 117.993 170.048 134.648 179.261 142.675L162.511 130.826L184.757 150.691L175.212 144.939L175.828 146.041L160.503 136.289C159.792 136.526 159.97 138.323 166.372 143.615C172.774 148.907 176.763 151.786 177.958 152.565L177.815 154.573L181.244 158.442C172.78 151.603 155.093 137.386 152.062 135.224L168.72 150.981C163.252 146.484 151.287 137.007 147.166 135.068C143.045 133.13 141.193 131.176 140.782 130.442C136.428 126.126 126.697 117.296 122.606 116.497C122.221 116.713 117.094 115.24 122.913 120.666C127.567 125.006 130.452 127.057 131.313 127.54C130.674 128.058 129.875 129.405 131.787 130.65C133.698 131.896 138.295 135.047 140.355 136.467L139.726 134.89C140.92 135.668 143.271 137.247 143.117 137.333C142.963 137.419 142.007 137.31 141.549 137.245L141.792 139.038C144.729 141.574 150.791 146.349 151.542 145.157C152.481 143.668 152.967 147.253 157.398 152.008C161.829 156.763 160.802 154.926 164.424 158.687C168.045 162.448 169.856 164.328 165.296 162.057C161.647 160.24 158.723 157.696 157.717 156.652L160.182 161.059L158.602 160.496L160.643 163.694L156.686 162.05C156.588 160.819 156.087 158.624 154.863 159.694C152.679 158.505 148.193 156.095 147.72 155.974C147.247 155.853 144.337 153.848 142.941 152.86C140.21 150.691 134.189 145.99 131.959 144.537C129.729 143.084 127.039 141.02 125.973 140.169L125.818 141.703L117.25 135.886L119.51 139.927L112.766 136.466L118.185 141.632L104.055 132.658L95.1018 127.057L93.8907 133.038L95.7015 134.919L96.2295 132.695L104.605 138.619L105.967 138.339L137.782 164.907C139.524 166.664 143.233 169.766 144.128 168.108C145.024 166.45 145.435 168.181 145.528 169.254L147.314 170.184L148.932 172.172L149.485 170.898L154.494 175.33L156.548 179.003C157.662 179.183 159.737 179.726 159.131 180.452C158.372 181.358 158.41 182.783 159.579 182.612C160.515 182.474 161.263 182.152 161.52 182.008C162.068 182.988 163.009 185.033 162.392 185.378C161.621 185.809 157.148 186.864 158.381 189.068C159.367 190.831 157.025 192.076 155.732 192.478L153.728 190.705L151.787 191.308C148.528 191.363 138.274 187.872 123.334 173.468C104.66 155.464 97.0308 148.158 90.89 145.324C90.2208 147.145 89.6739 151.115 92.8394 152.431C96.005 153.746 93.2586 153.482 91.4898 153.185L94.441 161.178L112.281 177.239L95.7112 164.808L117.609 186.313L108.618 179.287L108.488 181.771C106.955 180.539 102.811 177.231 98.4948 173.859C98.0966 173.599 92.3162 169.599 109.771 185.875C109.935 186.169 112.254 188.505 113.392 189.636L111.427 189.289L113.854 192.271L106.48 187.233C106.005 186.534 105.191 185.833 105.734 188.615L101.853 189.821L24.6997 121.104C12.0124 105.055 -3.04048 77.0211 38.2456 93.2777L39.9298 93.0164C40.4072 91.5407 36.8522 86.6805 34.4728 83.8156L37.0486 85.027L34.4098 81.4399L30.1215 74.6769L31.4712 73.9221L29.4172 70.2491L27.0153 68.2171C26.3516 67.7847 24.8188 66.5524 23.9972 65.0832L19.8892 57.7372L15.6009 50.9742L14.9846 49.8723L14.1001 46.0274L17.2354 46.2028L13.5759 41.0167C14.7747 41.9535 17.3778 44.1944 18.1994 45.6637C19.021 47.1329 22.591 51.4046 24.2733 53.3568L23.6068 50.3544L27.241 54.5902C26.3426 52.6818 24.2991 48.4243 23.3132 46.6612C22.3272 44.8982 38.3057 61.0996 46.4182 69.4207L36.3118 57.2323L33.7045 54.833L31.7008 53.0605L10.9888 24.6229L9.55095 22.0518L10.6285 25.7891C8.92083 23.5831 5.64988 19.3756 5.37632 19.0915L5.36343 19.0897C5.56883 19.457 4.41198 20.1039 3.79577 19.002C3.3028 18.1205 1.64807 14.2563 0.882331 12.4344C-0.204757 10.7923 -0.811281 7.59554 5.45935 7.94619C11.73 8.29684 13.5547 8.24074 13.6832 8.16886L15.0833 9.31459L16.6382 8.92679L19.04 10.9588L22.3933 11.9765L27.4277 17.3581L29.201 17.8136C29.6032 18.231 30.7673 19.3471 32.2062 20.4718C34.0048 21.8777 40.3888 26.5043 41.16 26.073C41.777 25.728 42.8812 27.0387 43.3561 27.7372L45.2048 31.0429L49.9581 33.2063C50.189 34.5243 50.8719 36.6507 51.7568 34.6122L56.1493 37.9409L59.939 40.6442L60.89 39.6293C62.2426 41.4444 65.138 44.8719 65.8992 44.0605L65.2704 42.4835L68.2381 43.7169L66.9553 39.6126L65.7984 40.2596L63.1534 36.4349L57.1424 31.1174L66.3265 38.0356L69.7428 41.429C70.535 41.7895 71.9551 42.2169 71.2978 41.0415C70.6405 39.8661 69.0119 38.4625 68.2797 37.9076C67.8175 37.6845 67.1218 37.0138 68.0369 36.1156C68.952 35.2174 69.7125 35.3394 69.9783 35.5127Z"/></svg>