<svg width="247" height="257" viewBox="0 0 247 257" fill="none" xmlns="http://www.w3.org/2000/svg">
<path d="M93.2056 46.9452C98.528 51.0354 110.484 59.5104 115.729 60.6887C108.08 54.0453 89.068 36.4107 74.2164 19.0193C81.7971 26.3436 98.2383 42.0751 103.359 46.4068C95.5043 38.5932 78.1124 20.4381 71.379 10.3273L78.8405 16.4334C79.0918 16.0787 79.324 15.0066 78.2428 13.5556C77.1615 12.1045 92.3837 25.7767 100.13 32.7942L77.0306 7.16681C77.6468 7.46464 79.1942 8.14113 80.4541 8.46442C82.029 8.86854 74.5004 0.230291 75.2879 0.432348C75.9179 0.593994 81.243 5.45304 83.8269 7.86235C87.0975 11.695 93.4408 19.1844 94.8675 21.0707C93.5422 19.053 88.099 10.6572 84.0505 6.45319C79.2248 1.44207 100.939 23.9896 105.971 26.9574C107.944 29.28 113.277 35.0775 118.822 39.6858L121.816 44.4359L147.741 68.4831L168.226 84.0088C169.635 84.7197 173.162 87.2873 175.995 91.8703C179.269 94.1078 185.356 98.8412 183.506 99.8755C181.194 101.168 172.912 93.5942 175.068 96.2432C177.224 98.8921 178.061 100.993 176.23 100.733C174.398 100.472 183.674 106.206 179.994 105.052C177.05 104.129 169.273 100.555 165.753 98.8828C163.539 97.3368 158.431 94.1119 155.706 93.5803C151.889 90.5751 148.802 88.8327 166.982 105.905C169.634 107.633 178.241 117.596 182.245 121.138L190.598 122.685C188.791 120.386 187.092 118.428 188.154 117.834C189.757 116.937 192.884 118.764 194.208 123.353L196.916 123.855C193.582 116.083 183.658 105.573 191.443 114.067C199.228 122.562 212.096 135.924 211.443 140.786L213.8 151.031L212.47 140.211L211.308 135.722L213.497 139.637L214.732 137.019L217.965 140.993L219.507 140.131L222.243 145.025C222.791 146.003 228.092 159.099 216.621 159.09C216.183 158.307 214.554 159.818 213.794 160.671C210.274 158.999 202.759 155.407 200.855 154.416C198.637 153.261 197.565 152.581 195.1 152.236L195.36 153.634C200.658 156.839 226.534 179.029 238.81 189.723L216.493 173.937L246.131 200.405L233.415 192.741L234.236 194.209L213.818 181.215C212.87 181.531 213.107 183.925 221.637 190.976C230.166 198.026 235.482 201.863 237.073 202.901L236.883 205.576L241.452 210.731C230.174 201.619 206.609 182.677 202.57 179.796L224.764 200.79C217.48 194.799 201.538 182.172 196.047 179.589C190.556 177.007 188.089 174.403 187.541 173.425C181.74 167.675 168.776 155.909 163.325 154.846C162.811 155.133 155.981 153.171 163.733 160.4C169.935 166.182 173.779 168.915 174.925 169.559C174.075 170.249 173.01 172.043 175.557 173.703C178.103 175.362 184.228 179.56 186.972 181.452L186.134 179.351C187.726 180.388 190.858 182.491 190.652 182.606C190.447 182.721 189.174 182.576 188.564 182.489L188.888 184.878C192.801 188.257 200.877 194.619 201.878 193.031C203.129 191.047 203.777 195.824 209.68 202.159C215.584 208.494 214.215 206.047 219.041 211.058C223.866 216.068 226.279 218.573 220.202 215.547C215.341 213.126 211.445 209.737 210.105 208.346L213.389 214.218L211.284 213.468L214.003 217.729L208.731 215.538C208.601 213.898 207.933 210.974 206.302 212.4C203.392 210.815 197.415 207.604 196.785 207.443C196.155 207.281 192.278 204.61 190.419 203.294C186.779 200.404 178.757 194.14 175.786 192.204C172.815 190.268 169.232 187.519 167.811 186.386L167.605 188.428L156.189 180.679L159.2 186.062L150.214 181.451L157.435 188.334L138.608 176.377L126.679 168.915L125.065 176.884L127.478 179.389L128.182 176.426L139.34 184.319L141.155 183.947L183.545 219.344C185.866 221.686 190.807 225.819 192 223.61C193.193 221.401 193.741 223.707 193.865 225.136L196.245 226.375L198.4 229.024L199.137 227.327L205.811 233.231L208.548 238.125C210.032 238.366 212.797 239.09 211.988 240.056C210.978 241.263 211.028 243.163 212.586 242.934C213.833 242.751 214.829 242.322 215.172 242.13C215.902 243.435 217.156 246.16 216.334 246.62C215.306 247.194 209.347 248.599 210.989 251.536C212.303 253.885 209.184 255.543 207.46 256.079L204.79 253.717L202.205 254.521C197.862 254.594 184.199 249.943 164.295 230.752C139.414 206.763 129.249 197.029 121.068 193.253C120.176 195.679 119.447 200.969 123.665 202.722C127.882 204.475 124.223 204.123 121.867 203.727L125.799 214.377L149.568 235.775L127.491 219.212L156.667 247.866L144.687 238.505L144.514 241.814C142.472 240.172 136.95 235.765 131.2 231.271C130.669 230.926 122.968 225.596 146.223 247.282C146.442 247.673 149.532 250.785 151.049 252.292L148.429 251.83L151.663 255.803L141.839 249.091C141.206 248.16 140.121 247.225 140.845 250.932L135.674 252.539L32.8782 160.984C15.9743 139.6 -4.08156 102.249 50.9264 123.909L53.1702 123.561C53.8063 121.595 49.0699 115.119 45.8996 111.302L49.3315 112.916L45.8157 108.137L40.1022 99.126L41.9004 98.1204L39.1637 93.2266L35.9635 90.5193C35.0793 89.9431 33.0371 88.3013 31.9424 86.3438L26.4689 76.5563L20.7554 67.5455L19.9344 66.0773L18.7558 60.9547L22.9332 61.1883L18.0574 54.2786C19.6547 55.5268 23.1229 58.5125 24.2176 60.47C25.3123 62.4275 30.0688 68.1189 32.3103 70.72L31.4221 66.7197L36.2643 72.3633C35.0672 69.8207 32.3446 64.1481 31.031 61.7991C29.7174 59.4501 51.0064 81.0362 61.8151 92.1229L48.3497 75.8836L44.8759 72.6869L42.2063 70.3252L14.6104 32.4361L12.6947 29.0105L14.1305 33.9899C11.8552 31.0508 7.49713 25.4449 7.13264 25.0663L7.11547 25.0639C7.38914 25.5533 5.8478 26.4152 5.02678 24.9471C4.36997 23.7726 2.16529 18.6242 1.14504 16.1967C-0.303355 14.0088 -1.11145 9.7496 7.24327 10.2168C15.598 10.684 18.0292 10.6092 18.2004 10.5135L20.0658 12.04L22.1375 11.5233L25.3376 14.2306L29.8054 15.5867L36.5129 22.7568L38.8757 23.3637C39.4116 23.9199 40.9625 25.4069 42.8797 26.9054C45.2761 28.7785 53.7817 34.9429 54.8093 34.3682C55.6314 33.9085 57.1025 35.6548 57.7354 36.5854L60.1984 40.9898L66.5316 43.8724C66.8391 45.6284 67.749 48.4615 68.928 45.7455L74.7804 50.1805L79.8297 53.7822L81.0968 52.43C82.8989 54.8485 86.7567 59.4151 87.7708 58.3341L86.933 56.2329L90.887 57.8762L89.1779 52.4078L87.6365 53.2698L84.1124 48.174L76.1036 41.0891L88.3401 50.3067L92.8918 54.8279C93.9473 55.3083 95.8394 55.8776 94.9637 54.3116C94.0879 52.7456 91.918 50.8755 90.9425 50.1361C90.3267 49.8389 89.3998 48.9453 90.619 47.7486C91.8383 46.5518 92.8514 46.7144 93.2056 46.9452Z" fill="#12141A"/>
</svg>
