<svg width="146" height="151" viewBox="0 0 146 151" fill="none" xmlns="http://www.w3.org/2000/svg">
<path d="M55.4893 27.7122C58.6254 30.1222 65.6703 35.1159 68.7609 35.8102C64.2537 31.8957 53.0513 21.5049 44.3004 11.2574C48.7671 15.5731 58.4548 24.8425 61.4718 27.3949C56.8438 22.7909 46.596 12.0934 42.6285 6.13583L47.025 9.73373C47.173 9.52475 47.3099 8.89303 46.6728 8.03801C46.0357 7.183 55.0051 15.2391 59.5694 19.374L45.9586 4.27357C46.3216 4.44906 47.2334 4.84767 47.9758 5.03817C48.9037 5.27628 44.4677 0.186377 44.9317 0.305436C45.3029 0.400682 48.4406 3.26377 49.9631 4.68341C51.8902 6.94168 55.6279 11.3546 56.4686 12.4661C55.6876 11.2772 52.4803 6.33018 50.0949 3.85309C47.2515 0.900391 60.0461 14.186 63.0111 15.9347C64.1739 17.3033 67.3161 20.7194 70.5832 23.4347L72.3472 26.2336L87.623 40.4029L99.6936 49.5511C100.524 49.97 102.602 51.4829 104.271 54.1833C106.201 55.5017 109.787 58.2908 108.697 58.9003C107.335 59.6621 102.455 55.1991 103.725 56.76C104.995 58.3208 105.489 59.5589 104.41 59.4054C103.33 59.2519 108.796 62.6303 106.628 61.9503C104.893 61.4064 100.31 59.3003 98.2362 58.3153C96.9319 57.4044 93.922 55.5042 92.3161 55.1909C90.0674 53.4202 88.2481 52.3935 98.9603 62.4527C100.523 63.4713 105.595 69.3416 107.954 71.4289L112.876 72.3402C111.811 70.9858 110.81 69.8317 111.436 69.482C112.38 68.9536 114.223 70.0302 115.003 72.7341L116.599 73.0296C114.634 68.4504 108.786 62.2572 113.374 67.2625C117.961 72.2679 125.543 80.1409 125.158 83.0058L126.547 89.0426L125.763 82.6673L125.079 80.0219L126.369 82.3287L127.096 80.7865L129.001 83.1277L129.91 82.6199L131.522 85.5034C131.845 86.0801 134.968 93.7965 128.209 93.7912C127.951 93.3298 126.991 94.2198 126.544 94.7225C124.47 93.7373 120.041 91.621 118.919 91.037C117.612 90.3565 116.981 89.956 115.528 89.7528L115.681 90.5766C118.803 92.4646 134.05 105.54 141.284 111.841L128.134 102.54L145.598 118.135L138.105 113.619L138.588 114.484L126.557 106.828C125.999 107.014 126.139 108.425 131.165 112.579C136.19 116.734 139.322 118.994 140.26 119.606L140.148 121.182L142.84 124.219C136.195 118.851 122.31 107.689 119.93 105.992L133.008 118.362C128.715 114.832 119.322 107.392 116.086 105.87C112.851 104.348 111.397 102.814 111.075 102.238C107.657 98.8496 100.018 91.917 96.8058 91.2904C96.5031 91.4597 92.4786 90.3035 97.0462 94.5628C100.7 97.9702 102.965 99.5805 103.641 99.9596C103.14 100.366 102.512 101.424 104.013 102.401C105.513 103.379 109.122 105.853 110.739 106.968L110.246 105.729C111.183 106.341 113.029 107.58 112.908 107.647C112.787 107.715 112.037 107.63 111.677 107.579L111.868 108.986C114.174 110.977 118.933 114.726 119.522 113.79C120.259 112.621 120.641 115.436 124.12 119.169C127.598 122.901 126.792 121.46 129.635 124.412C132.478 127.364 133.9 128.841 130.32 127.057C127.455 125.631 125.16 123.634 124.37 122.814L126.305 126.274L125.064 125.832L126.667 128.343L123.561 127.052C123.484 126.085 123.09 124.363 122.129 125.203C120.415 124.269 116.893 122.377 116.522 122.282C116.15 122.187 113.866 120.613 112.77 119.838C110.626 118.135 105.899 114.444 104.148 113.303C102.398 112.162 100.286 110.542 99.4491 109.874L99.3274 111.078L92.6011 106.512L94.3749 109.684L89.0801 106.967L93.3351 111.022L82.2419 103.977L75.2129 99.5804L74.2621 104.276L75.6837 105.752L76.0983 104.006L82.6732 108.657L83.7427 108.438L108.72 129.295C110.088 130.675 112.999 133.11 113.702 131.808C114.405 130.506 114.727 131.865 114.801 132.707L116.203 133.438L117.473 134.999L117.907 133.999L121.84 137.477L123.453 140.361C124.327 140.503 125.956 140.929 125.48 141.499C124.884 142.21 124.914 143.329 125.832 143.194C126.566 143.086 127.154 142.834 127.355 142.721C127.785 143.49 128.524 145.095 128.04 145.366C127.434 145.705 123.923 146.533 124.891 148.263C125.665 149.647 123.827 150.624 122.811 150.94L121.238 149.548L119.715 150.022C117.156 150.065 109.106 147.324 97.3771 136.016C82.7166 121.881 76.7273 116.146 71.9064 113.921C71.3811 115.35 70.9516 118.467 73.4368 119.5C75.9219 120.533 73.7659 120.326 72.3772 120.093L74.6941 126.368L88.6997 138.976L75.6913 129.217L92.8825 146.1L85.8238 140.585L85.7219 142.534C84.5185 141.567 81.2648 138.97 77.8766 136.323C77.564 136.119 73.0261 132.979 86.7289 145.756C86.8579 145.987 88.6782 147.821 89.5722 148.709L88.0289 148.436L89.9342 150.777L84.1458 146.822C83.7728 146.274 83.1335 145.723 83.5601 147.907L80.513 148.854L19.9427 94.9069C9.98242 82.3073 -1.83509 60.2989 30.5772 73.0614L31.8993 72.8563C32.2741 71.6978 29.4833 67.8822 27.6153 65.633L29.6374 66.5841L27.5658 63.768L24.1992 58.4586L25.2588 57.8661L23.6463 54.9825L21.7606 53.3873C21.2396 53.0478 20.0363 52.0804 19.3913 50.927L16.1662 45.1599L12.7996 39.8504L12.3158 38.9854L11.6213 35.9669L14.0828 36.1046L11.2098 32.0332C12.151 32.7687 14.1946 34.5279 14.8396 35.6813C15.4846 36.8348 18.2873 40.1883 19.608 41.721L19.0847 39.3639L21.9379 42.6893C21.2325 41.191 19.6283 37.8486 18.8542 36.4645C18.0802 35.0804 30.6243 47.7996 36.9932 54.3322L29.0589 44.7635L27.0121 42.8799L25.4391 41.4883L9.17878 19.163L8.04999 17.1445L8.89598 20.0785C7.55531 18.3467 4.9874 15.0436 4.77264 14.8205L4.76253 14.8191C4.92378 15.1074 4.01558 15.6153 3.53181 14.7502C3.1448 14.0582 1.84573 11.0246 1.24458 9.59428C0.391141 8.30506 -0.0850149 5.79543 4.83783 6.07071C9.76067 6.346 11.1932 6.30195 11.2941 6.24552L12.3932 7.14499L13.6139 6.84055L15.4995 8.43579L18.1321 9.23479L22.0844 13.4596L23.4766 13.8172C23.7923 14.145 24.7062 15.0211 25.8358 15.9041C27.2479 17.0078 32.2597 20.64 32.8651 20.3014C33.3495 20.0306 34.2164 21.0595 34.5892 21.6079L36.0405 24.2031L39.7722 25.9015C39.9535 26.9363 40.4896 28.6056 41.1843 27.0053L44.6327 29.6185L47.6078 31.7407L48.3545 30.944C49.4163 32.369 51.6894 35.0598 52.287 34.4228L51.7933 33.1847L54.1232 34.153L53.1161 30.9309L52.2079 31.4388L50.1313 28.4362L45.4123 24.2616L52.6224 29.6928L55.3044 32.3568C55.9264 32.6399 57.0413 32.9754 56.5253 32.0527C56.0092 31.1299 54.7307 30.028 54.1559 29.5924C53.793 29.4172 53.2468 28.8907 53.9652 28.1855C54.6837 27.4804 55.2806 27.5762 55.4893 27.7122Z" fill="#12141A"/>
</svg>
