<svg xmlns="http://www.w3.org/2000/svg" width="1136" height="663" fill="none" viewBox="0 0 1136 663"><path fill="url(#paint0_linear_1_6)" d="M1066.53 314L998.53 380.5L1081.03 459.5L1066.53 481.5L976.03 398L893.03 469.5L970.53 554.5L956.03 570L871.03 484L841.53 509.5L926.03 597.5L902.03 620.5L816.03 532.5L790.53 554.5L866.03 628.5L841.53 651.5L768.03 584.5L745.53 605L783.03 639.5L764.53 662.5L717.03 620.5L672.53 662.5L647.53 639.5L694.53 595.5L643.53 541.5L622.53 557L660.53 600.5L638.53 620.5L523.03 500.5L432.03 405L367.03 506L467.53 574L457.53 602L375.53 547C370.197 557.167 359.63 583.7 360.03 608.5L332.031 597C335.197 579 342.831 540.4 348.031 530L255.031 475C244.031 509.5 224.331 586.9 233.531 620.5H173.531C176.365 597.167 185.731 537.2 200.531 484L161.031 424.5C137.531 434.5 79.2314 453.6 34.0313 450C12.8647 445.667 -20.2687 416.1 16.5313 332.5C2.19798 317.5 -3.16875 267.6 90.0312 188L224.531 224L278.031 158L216.031 83.5L236.531 68.5L367.03 207L398.531 178.5L353.031 95.5L303.531 120L285.531 95.5L367.03 54.5L423.031 158L494.031 102L466.531 54.5L490.531 41.5L520.031 79L619.031 0L650.531 37.5L571.031 107L659.531 207L734.031 143L650.531 58.5L671.031 41.5L760.531 120L838.531 51L1135.03 343.5L1118.03 361.5L1068.53 311.823L1066.53 314Z"/><defs><linearGradient id="paint0_linear_1_6" x1="568" x2="575.5" y1="-22" y2="637" gradientUnits="userSpaceOnUse"><stop offset=".085" stop-color="#010108"/><stop offset=".526" stop-color="#0F1115"/><stop offset="1" stop-color="#010108"/></linearGradient></defs></svg>