<svg xmlns="http://www.w3.org/2000/svg" width="957" height="997" fill="none" viewBox="0 0 957 997"><path fill="#12141A" d="M345.398 397.556C358.298 412.053 385.408 443.931 390.653 455.472C370.111 433.902 316.117 379.21 264.473 333.007C286.769 355.096 334.722 402.856 348.171 417.184C324.481 394.081 269.792 342.103 240.551 319.014L259.609 339.694C258.784 339.852 256.073 339.281 251.829 335.739C247.585 332.198 289.646 375.558 311.207 397.68L234.606 327.187C235.639 328.696 238.047 332.418 239.413 335.229C241.119 338.742 215.405 315.492 216.259 317.249C216.941 318.655 231.854 333.897 239.226 341.342C250.606 351.519 272.824 371.312 278.35 375.958C272.522 371.387 248.302 352.508 235.629 340.43C220.523 326.033 288.492 390.814 298.333 403.654C305.226 409.804 322.599 425.964 336.947 441.4L350.614 451.911L424.243 526.49L473.324 582.077C475.765 585.557 483.939 595.025 497.103 605.056C504.309 613.706 519.207 630.338 521.153 627.663C523.585 624.32 500.346 600.598 508.168 607.424C515.991 614.25 521.836 617.935 520.4 614.049C518.963 610.164 537.793 634.087 533.257 625.674C529.627 618.944 517.067 600.074 511.241 591.48C506.282 585.601 495.736 572.362 493.222 566.443C483.783 555.978 477.95 548.175 530.129 600.675C535.746 607.602 565.371 634.265 576.294 645.619L583.783 663.681C577.022 657.885 571.195 652.629 570.078 654.164C568.392 656.483 574.462 664.445 587.02 671.487L589.449 677.344C567.731 663.25 536.129 633.445 561.573 657.066C587.017 680.688 627.295 719.076 639.753 722.459L667.544 736.994L638.673 723.944L626.441 717.319L637.592 725.43L631.248 725.36L642.982 735.6L641.36 737.829L655.298 747.968C658.086 749.996 694.551 773.116 689.802 750.345C687.572 748.723 690.855 746.944 692.775 746.258C686.949 737.665 674.451 719.296 671.072 714.564C667.135 709.052 664.914 706.272 662.996 701.048L666.763 702.909C677.333 716.505 746.081 789.2 779.133 823.848L728.616 764.377L810.109 848.654L784.808 816.046L788.99 819.088L746.565 766.071C747.001 764.495 753.366 767.269 775.337 790.978C797.307 814.686 809.541 828.925 812.912 833.081L819.838 835.279L835.213 849.304C806.716 818.159 747.422 753.174 738.217 742.388L802.317 806.627C783.634 786.409 744.012 742.626 734.989 729.246C725.967 715.866 718.136 708.465 715.348 706.437C697.907 689.394 661.767 652.349 656.739 640.511C657.279 639.768 649.329 624.327 671.445 646.664C689.137 664.533 697.874 674.79 700.031 677.684C701.487 676.66 705.746 676.274 711.139 682.924C716.532 689.574 730.045 705.766 736.128 713.031L730.282 709.347C733.653 713.504 740.448 721.742 740.664 721.444C740.88 721.147 739.977 718.483 739.498 717.188L745.884 720.129C756.342 731.145 776.322 753.292 772.579 753.75C767.9 754.323 780.671 760.205 799.687 778.014C818.702 795.823 811.733 790.753 826.837 805.149C841.941 819.545 849.493 826.743 839.068 811.774C830.728 799.799 820.252 788.808 816.057 784.809L832.782 796.976L829.952 792.077L842.226 801.573L834.319 789.004C829.971 787.167 822.042 783.028 825.103 781.164C819.755 773.865 808.889 758.917 808.207 757.511C807.524 756.106 798.934 745.843 794.724 740.887C785.66 730.884 765.958 708.94 759.667 701.182C753.375 693.424 744.7 683.667 741.149 679.759L746.412 681.314L721.423 651.207L736.755 662.36L720.983 640.093L741.975 661.044L702.921 612.184L678.473 581.333L698.669 585.799L706.221 592.997L698.754 591.542L724.013 621.278L723.785 624.521L833.908 742.69C840.995 749.55 853.847 763.33 848.557 763.572C843.266 763.813 849.528 767.119 853.321 768.742L857.545 774.655L865.367 781.481L861.228 781.311L879.433 800.234L893.371 810.373C894.613 813.549 897.646 819.732 899.842 819.057C902.587 818.214 907.579 820.141 907.622 823.012C907.656 825.31 906.943 826.874 906.583 827.37C910.3 830.074 917.95 835.184 918.814 833.995C919.895 832.509 921.119 822.037 929.482 828.12C936.172 832.987 939.229 828.394 939.921 825.489L932.639 817.92L933.678 813.562C932.081 805.015 914.277 773.431 855.84 715.47C782.795 643.019 753.127 613.484 739.872 593.616C745.855 594.181 759.403 597.825 765.729 607.88C772.055 617.936 769.626 610.337 767.621 605.28L797.118 623.329L862.924 691.082L810.473 631.339L897.499 716.801L868.059 684.023L876.649 686.864C871.51 681.232 857.7 666.035 843.568 650.302C842.445 648.916 825.321 628.507 891.668 695.517C892.783 696.328 902.202 705.452 906.772 709.913L904.483 704.27L916.216 714.51L894.598 688.559C891.901 686.407 889.006 683.355 899.007 688.358L901.084 679.643L619.072 387.578C556.133 333.463 450.096 257.728 529.454 387.718L529.467 391.835C524.582 391.205 505.68 375.576 494.382 365.613L500.021 373.976L486.061 362.401L460.12 342.394L458.228 344.995L444.29 334.856L435.885 325.901C434.012 323.592 428.873 317.96 423.298 313.904L395.422 293.626L369.481 273.619L365.299 270.578L351.404 263.31L353.736 271.824L333.64 255.501C337.565 259.871 346.81 269.626 352.385 273.681C357.96 277.737 374.818 292.651 382.551 299.601L371.713 293.99L388.481 309.028C381.332 304.206 365.361 293.346 358.671 288.479C351.981 283.613 417.257 346.625 450.732 378.739L402.674 336.396L392.875 326.427L385.594 318.858L275.042 227.644L265.285 220.547L278.912 228.187C270.281 220.844 253.811 206.803 252.67 205.716L252.656 205.679C254.05 206.693 255.671 204.464 251.49 201.422C248.145 198.989 233.759 189.661 226.985 185.301C220.661 180.321 209.178 174.62 213.843 191.647C218.507 208.674 219.313 213.427 219.133 213.674L223.897 218.844L223.398 222.458L231.803 231.413L237.194 241.583L258.726 261.791L261.288 267.063C262.965 268.662 267.496 273.17 272.209 278.416C278.099 284.973 297.74 307.782 296.659 309.268C295.794 310.456 300.971 315.056 303.668 317.207L316.212 326.332L326.367 341.672C331.09 343.972 338.881 348.503 332.257 348.229L346.278 364.109L357.786 377.594L354.768 378.807C361.841 384.71 375.385 396.758 372.973 397.731L367.127 394.046L373.058 403.473L358.039 394.82L359.66 392.591L344.869 380.695L323.024 357.987L352.193 391.136L365.904 404.518C367.596 407.075 369.866 411.377 365.406 408.133C360.946 404.888 355.156 398.783 352.819 396.136C351.787 394.628 349.066 391.929 346.436 393.197C343.805 394.465 344.648 396.631 345.398 397.556Z"/><path fill="#505060" d="M789.707 607.5C775.986 596.699 745.882 574.074 735.23 569.988C755.72 587.271 807.775 632.808 852.077 676.694C831.026 657.864 785.525 617.377 771.926 606.073C793.963 626.101 843.618 672.409 865.943 697.424L846.334 681.426C846.237 682.175 846.896 684.58 850.308 688.2C853.719 691.82 812.491 656.388 791.45 638.22L858.924 703.208C857.512 702.361 854.039 700.399 851.44 699.325C848.191 697.983 870.47 719.821 868.845 719.149C867.546 718.612 853.046 706.042 845.959 699.825C836.2 690.154 817.216 671.269 812.743 666.557C817.165 671.544 835.437 692.277 846.973 703.006C860.724 715.795 798.849 658.252 786.781 650.108C780.883 644.249 765.425 629.52 750.782 617.468L740.6 605.761L669.616 543.665L617.023 502.59C613.765 500.586 604.817 493.757 595.093 482.475C586.932 476.472 571.184 463.99 573.481 462.098C576.353 459.732 598.922 479.321 592.366 472.664C585.81 466.008 582.183 460.957 585.751 462.036C589.319 463.116 566.809 447.498 574.612 451.117C580.855 454.013 598.486 464.272 606.521 469.04C612.071 473.176 624.535 481.931 629.988 483.869C639.9 491.78 647.225 496.597 597.238 452.572C590.711 447.901 565.154 422.735 554.363 413.539L537.733 407.791C543.306 413.55 548.343 418.5 547.024 419.586C545.033 421.227 537.552 416.205 530.545 405.307L525.152 403.442C538.99 422.187 567.476 448.958 544.878 427.383C522.281 405.808 485.614 371.709 481.9 360.701L467.337 336.525L480.625 361.752L487.239 372.38L479.348 362.804L479.755 368.498L469.921 358.513L468.006 360.09L458.143 348.12C456.171 345.726 433.426 314.224 454.138 317.255C455.716 319.17 457.136 316.125 457.648 314.363C465.683 319.131 482.861 329.362 487.294 332.14C492.459 335.378 495.077 337.222 499.873 338.662L497.997 335.379C485.211 326.621 416.184 268.808 383.269 240.996L439.429 283.151L359.308 214.515L389.97 235.475L387.011 231.884L436.934 267.119C438.327 266.642 435.489 261.074 413.002 242.624C390.515 224.174 377.061 213.956 373.144 211.154L370.795 205.051L357.363 192.001C386.884 215.91 448.473 265.65 458.661 273.334L397.482 219.237C416.656 234.924 458.133 268.142 470.641 275.521C483.149 282.9 490.222 289.533 492.194 291.927C508.449 306.671 543.684 337.126 554.591 341.001C555.229 340.475 569.53 346.78 548.267 328.125C531.256 313.201 521.569 305.908 518.852 304.128C519.694 302.765 519.809 298.918 513.544 294.434C507.278 289.95 492 278.689 485.144 273.62L488.771 278.671C484.854 275.868 477.086 270.211 477.341 270C477.597 269.79 480.039 270.457 481.228 270.817L478.24 265.24C467.778 256.443 446.801 239.696 446.592 243.083C446.331 247.318 440.355 236.164 423.327 220.049C406.299 203.933 411.231 209.918 397.481 197.131C383.73 184.344 376.855 177.95 390.866 186.503C402.075 193.346 412.516 202.16 416.336 205.712L404.5 191.348L409.054 193.624L399.858 183.114L411.577 189.535C413.463 193.341 417.612 200.239 419.12 197.389C425.966 201.797 439.982 210.747 441.282 211.284C442.582 211.821 452.266 218.981 456.946 222.494C466.423 230.094 487.202 246.601 494.512 251.833C501.822 257.064 511.057 264.327 514.76 267.305L513.078 262.662L541.477 283.477L530.627 270.309L551.484 283.27L531.526 265.549L577.533 297.981L606.571 318.27L601.464 300.37L594.589 293.977L596.301 300.605L568.221 279.528L565.32 279.908L453.203 187.394C446.656 181.399 433.581 170.602 433.651 175.367C433.721 180.133 430.412 174.687 428.749 171.368L423.208 167.894L416.652 161.237L417.029 164.946L399.044 149.619L389.181 137.649C386.261 136.705 380.542 134.316 381.03 132.307C381.639 129.795 379.637 125.415 377.055 125.533C374.99 125.627 373.623 126.351 373.197 126.702C370.567 123.51 365.562 116.915 366.583 116.074C367.859 115.022 377.2 113.356 371.282 106.174C366.547 100.428 370.508 97.4325 373.08 96.6532L380.274 102.784L384.132 101.615C391.896 102.586 421.233 116.867 476.465 166.217C545.505 227.904 573.644 252.953 592.209 263.782C591.377 258.439 587.369 246.467 577.994 241.33C568.619 236.192 575.577 237.962 580.227 239.489L562.416 213.971L497.988 158.532L554.496 202.409L473.011 128.869L504.05 153.537L501.033 145.974C506.37 150.285 520.77 161.867 535.669 173.708C536.974 174.642 556.236 188.917 492.446 132.952C491.657 131.995 482.95 124.028 478.696 120.165L483.888 121.916L474.054 111.931L498.537 129.943C500.616 132.249 503.515 134.684 498.479 125.972L506.195 123.634L783.835 361.126C835.858 414.728 909.636 505.873 788.568 441.634L784.869 441.846C785.699 446.2 800.763 462.332 810.325 471.941L802.508 467.329L813.661 479.24L833.039 501.458L830.806 503.299L840.669 515.269L849.169 522.334C851.344 523.891 856.682 528.202 860.627 532.99L880.353 556.931L899.731 579.149L902.69 582.74L909.972 594.828L902.198 593.195L917.95 610.362C913.811 607.072 904.548 599.297 900.602 594.509C896.657 589.721 882.346 575.386 875.684 568.817L881.312 578.248L866.894 564.001C871.613 570.161 882.235 583.919 886.969 589.665C891.703 595.411 831.562 540.19 800.9 511.862L841.542 552.735L851.027 560.997L858.222 567.128L946.148 661.489L953.053 669.868L945.451 658.042C952.515 665.397 966.021 679.43 967.059 680.396L967.093 680.406C966.106 679.209 968.021 677.632 970.98 681.223C973.347 684.096 982.506 696.513 986.79 702.362C991.605 707.773 997.349 717.778 981.801 714.511C966.253 711.244 961.941 710.778 961.728 710.953L956.826 706.953L953.607 707.598L945.107 700.533L935.68 696.242L916.36 677.996L911.485 675.98C909.959 674.561 905.663 670.735 900.696 666.786C894.486 661.85 872.933 645.444 871.657 646.496C870.636 647.337 866.224 642.935 864.145 640.63L855.268 629.856L840.938 621.566C838.616 617.448 834.124 610.695 834.729 616.63L819.704 604.897L806.968 595.29L806.042 598.067C800.356 592.033 788.799 580.521 788.056 582.74L791.682 587.791L782.893 582.975L791.48 595.997L793.394 594.42L804.882 607.061L826.464 625.453L795.106 601.048L782.342 589.458C779.954 588.076 775.966 586.271 779.123 590.101C782.279 593.932 788.077 598.801 790.581 600.757C791.991 601.602 794.563 603.9 793.567 606.332C792.571 608.763 790.579 608.124 789.707 607.5Z"/><path fill="#505060" d="M248.398 483.556C261.298 498.053 288.408 529.931 293.653 541.472C273.111 519.902 219.117 465.21 167.473 419.007C189.769 441.096 237.722 488.856 251.171 503.184C227.481 480.081 172.792 428.103 143.551 405.014L162.609 425.694C161.784 425.852 159.073 425.281 154.829 421.739C150.585 418.198 192.646 461.558 214.207 483.68L137.606 413.187C138.639 414.696 141.047 418.418 142.413 421.229C144.119 424.742 118.405 401.492 119.259 403.249C119.941 404.655 134.854 419.897 142.226 427.342C153.606 437.519 175.824 457.312 181.35 461.958C175.522 457.387 151.302 438.508 138.629 426.43C123.523 412.033 191.492 476.814 201.333 489.654C208.226 495.804 225.599 511.964 239.947 527.4L253.614 537.911L327.243 612.49L376.324 668.077C378.765 671.557 386.939 681.025 400.103 691.056C407.309 699.706 422.207 716.338 424.153 713.663C426.585 710.32 403.346 686.598 411.168 693.424C418.991 700.25 424.836 703.935 423.4 700.049C421.963 696.164 440.793 720.087 436.257 711.674C432.627 704.944 420.067 686.074 414.241 677.48C409.282 671.601 398.736 658.362 396.222 652.443C386.783 641.978 380.95 634.175 433.129 686.675C438.746 693.602 468.371 720.265 479.294 731.619L486.783 749.681C480.022 743.885 474.195 738.629 473.078 740.164C471.392 742.483 477.462 750.445 490.02 757.487L492.449 763.344C470.731 749.25 439.129 719.445 464.573 743.066C490.017 766.688 530.295 805.076 542.753 808.459L570.544 822.994L541.673 809.944L529.441 803.319L540.592 811.43L534.248 811.36L545.982 821.6L544.36 823.829L558.298 833.968C561.086 835.996 597.551 859.116 592.802 836.345C590.572 834.723 593.855 832.944 595.775 832.258C589.949 823.665 577.451 805.296 574.072 800.564C570.135 795.052 567.914 792.272 565.996 787.048L569.763 788.909C580.333 802.505 649.081 875.2 682.133 909.848L631.616 850.377L713.109 934.654L687.808 902.046L691.99 905.088L649.565 852.071C650.001 850.495 656.366 853.269 678.337 876.978C700.307 900.686 712.541 914.925 715.912 919.081L722.838 921.279L738.213 935.304C709.716 904.159 650.422 839.174 641.217 828.388L705.317 892.627C686.634 872.409 647.012 828.626 637.989 815.246C628.967 801.866 621.136 794.465 618.348 792.437C600.907 775.394 564.767 738.349 559.739 726.511C560.279 725.768 552.329 710.327 574.445 732.664C592.137 750.533 600.874 760.79 603.031 763.684C604.487 762.66 608.746 762.274 614.139 768.924C619.532 775.574 633.045 791.766 639.128 799.031L633.282 795.347C636.653 799.504 643.448 807.742 643.664 807.444C643.88 807.147 642.977 804.483 642.498 803.188L648.884 806.129C659.342 817.145 679.322 839.292 675.579 839.75C670.9 840.323 683.671 846.205 702.687 864.014C721.702 881.823 714.733 876.753 729.837 891.149C744.941 905.545 752.493 912.743 742.068 897.774C733.728 885.799 723.252 874.808 719.057 870.809L735.782 882.976L732.952 878.077L745.226 887.573L737.319 875.004C732.971 873.167 725.042 869.028 728.103 867.164C722.755 859.865 711.889 844.917 711.207 843.511C710.524 842.106 701.934 831.843 697.724 826.887C688.66 816.884 668.958 794.94 662.667 787.182C656.375 779.424 647.7 769.667 644.149 765.759L649.412 767.314L624.423 737.207L639.755 748.36L623.983 726.093L644.975 747.044L605.921 698.184L581.473 667.333L601.669 671.799L609.221 678.997L601.754 677.542L627.013 707.278L626.785 710.521L736.908 828.69C743.995 835.55 756.847 849.33 751.557 849.572C746.266 849.813 752.528 853.119 756.321 854.742L760.545 860.655L768.367 867.481L764.228 867.311L782.433 886.234L796.371 896.373C797.613 899.549 800.646 905.732 802.842 905.057C805.587 904.214 810.579 906.141 810.622 909.012C810.656 911.31 809.943 912.874 809.583 913.37C813.3 916.074 820.95 921.184 821.814 919.995C822.895 918.509 824.119 908.037 832.482 914.12C839.172 918.987 842.229 914.394 842.921 911.489L835.639 903.92L836.678 899.562C835.081 891.015 817.277 859.431 758.84 801.47C685.795 729.019 656.127 699.484 642.872 679.616C648.855 680.181 662.403 683.825 668.729 693.88C675.055 703.936 672.626 696.337 670.621 691.28L700.118 709.329L765.924 777.082L713.473 717.339L800.499 802.801L771.059 770.023L779.649 772.864C774.51 767.232 760.7 752.035 746.568 736.302C745.445 734.916 728.321 714.507 794.668 781.517C795.783 782.328 805.202 791.452 809.772 795.913L807.483 790.27L819.216 800.51L797.598 774.559C794.901 772.407 792.006 769.355 802.007 774.358L804.084 765.643L522.072 473.578C459.133 419.463 353.096 343.728 432.454 473.718L432.467 477.835C427.582 477.205 408.68 461.576 397.382 451.613L403.021 459.976L389.061 448.401L363.12 428.394L361.228 430.995L347.29 420.856L338.885 411.901C337.012 409.592 331.873 403.96 326.298 399.904L298.422 379.626L272.481 359.619L268.299 356.578L254.404 349.31L256.736 357.824L236.64 341.501C240.565 345.871 249.81 355.626 255.385 359.681C260.96 363.737 277.818 378.651 285.551 385.601L274.713 379.99L291.481 395.028C284.332 390.206 268.361 379.346 261.671 374.479C254.981 369.613 320.257 432.625 353.732 464.739L305.674 422.396L295.875 412.427L288.594 404.858L178.042 313.644L168.285 306.547L181.912 314.187C173.281 306.844 156.811 292.803 155.67 291.716L155.656 291.679C157.05 292.693 158.671 290.464 154.49 287.422C151.145 284.989 136.759 275.661 129.985 271.301C123.661 266.321 112.178 260.62 116.843 277.647C121.507 294.674 122.313 299.427 122.133 299.674L126.897 304.844L126.398 308.458L134.803 317.413L140.194 327.583L161.726 347.791L164.288 353.063C165.965 354.662 170.496 359.17 175.209 364.416C181.099 370.973 200.74 393.782 199.659 395.268C198.794 396.456 203.971 401.056 206.668 403.207L219.212 412.332L229.367 427.672C234.09 429.972 241.881 434.503 235.257 434.229L249.278 450.109L260.786 463.594L257.768 464.807C264.841 470.71 278.385 482.758 275.973 483.731L270.127 480.046L276.058 489.473L261.039 480.82L262.66 478.591L247.869 466.695L226.024 443.987L255.193 477.136L268.904 490.518C270.596 493.075 272.866 497.377 268.406 494.133C263.946 490.888 258.156 484.783 255.819 482.136C254.787 480.628 252.066 477.929 249.436 479.197C246.805 480.465 247.648 482.631 248.398 483.556Z"/></svg>