<svg width="102" height="25" viewBox="0 0 102 25" fill="none" xmlns="http://www.w3.org/2000/svg">
<path d="M37 4.22222H40.0279V18.4H47.6866V19.7778H37V4.22222Z" fill="#F1F1F1"/>
<path d="M50.7772 7.77778C50.2904 7.77778 49.8867 7.6 49.5661 7.24444C49.2574 6.88889 49.103 6.43704 49.103 5.88889C49.103 5.34074 49.2574 4.88889 49.5661 4.53333C49.8867 4.17778 50.2904 4 50.7772 4C51.2641 4 51.6618 4.17778 51.9706 4.53333C52.2912 4.88889 52.4515 5.34074 52.4515 5.88889C52.4515 6.43704 52.2912 6.88889 51.9706 7.24444C51.6618 7.6 51.2641 7.77778 50.7772 7.77778ZM49.4592 8.88889H52.0952V19.7778H49.4592V8.88889Z" fill="#F1F1F1"/>
<path d="M54.8623 8.88889H57.4984V10.6889C57.7715 10.0667 58.1871 9.57778 58.7451 9.22222C59.3151 8.85185 59.9504 8.66667 60.6509 8.66667C61.8146 8.66667 62.7289 9.03704 63.3938 9.77778C64.0706 10.5185 64.409 11.5407 64.409 12.8444V19.7778H61.773V12.6444C61.773 10.763 61.1437 9.82222 59.885 9.82222C59.1489 9.82222 58.567 10.163 58.1396 10.8444C57.7121 11.5259 57.4984 12.4444 57.4984 13.6V19.7778H54.8623V8.88889Z" fill="#F1F1F1"/>
<path d="M66.6552 8.88889H69.2734V10.5111C69.4753 9.96296 69.8315 9.51852 70.3421 9.17778C70.8526 8.83704 71.4285 8.66667 72.0697 8.66667C72.9484 8.66667 73.6608 8.87407 74.207 9.28889C74.7651 9.68889 75.1629 10.2593 75.4004 11C75.6616 10.1852 76.0475 9.59259 76.5581 9.22222C77.0806 8.85185 77.6743 8.66667 78.3392 8.66667C80.809 8.66667 82.0439 10.037 82.0439 12.7778V19.7778H79.4079V12.5778C79.4079 11.6741 79.2594 10.9926 78.9626 10.5333C78.6776 10.0593 78.2561 9.82222 77.698 9.82222C77.0331 9.82222 76.5225 10.2074 76.1663 10.9778C75.81 11.7333 75.6319 12.837 75.6319 14.2889V19.7778H73.0671V13.5111C73.0671 12.3111 72.9068 11.4 72.5862 10.7778C72.2775 10.1407 71.8322 9.82222 71.2504 9.82222C70.6211 9.82222 70.1343 10.1481 69.7899 10.8C69.4574 11.4519 69.2912 12.3852 69.2912 13.6V19.7778H66.6552V8.88889Z" fill="#F1F1F1"/>
<path d="M87.9062 20C86.6357 20 85.6798 19.7111 85.0386 19.1333C84.4093 18.5407 84.0947 17.7111 84.0947 16.6444C84.0947 15.5185 84.4687 14.6519 85.2167 14.0444C85.9648 13.437 87.0453 13.1333 88.4583 13.1333H90.7916V12.4C90.7916 11.5704 90.6075 10.9333 90.2394 10.4889C89.8714 10.0444 89.343 9.82222 88.6543 9.82222C87.9775 9.82222 87.4372 10.037 87.0335 10.4667C86.6416 10.8963 86.3982 11.5259 86.3032 12.3556H84.344C84.4746 11.1556 84.9318 10.2444 85.7155 9.62222C86.4991 8.98519 87.5619 8.66667 88.9036 8.66667C90.376 8.66667 91.4981 9.00741 92.2699 9.68889C93.0417 10.3704 93.4276 11.3556 93.4276 12.6444V16.1556C93.4276 17.5037 93.5167 18.7111 93.6948 19.7778H91.2369C91.1181 19.2148 91.035 18.7185 90.9875 18.2889C90.6432 18.8963 90.1979 19.3333 89.6517 19.6C89.1174 19.8667 88.5355 20 87.9062 20ZM88.4583 18.8889C89.1945 18.8889 89.7645 18.6444 90.1682 18.1556C90.5838 17.6519 90.7916 16.9852 90.7916 16.1556V14.2889H89.2064C88.4109 14.2889 87.7993 14.4963 87.3719 14.9111C86.9444 15.3111 86.7307 15.8815 86.7307 16.6222C86.7307 17.3778 86.8732 17.9481 87.1581 18.3333C87.455 18.7037 87.8884 18.8889 88.4583 18.8889Z" fill="#F1F1F1"/>
<path d="M95.8908 8.88889H98.5268V11.1333C98.7525 10.3481 99.1027 9.74074 99.5777 9.31111C100.065 8.88148 100.67 8.66667 101.394 8.66667C101.632 8.66667 101.834 8.6963 102 8.75556L101.84 10.6889C101.65 10.5704 101.4 10.5111 101.092 10.5111C100.213 10.5111 99.5658 10.9556 99.1502 11.8444C98.7346 12.7333 98.5268 13.7778 98.5268 14.9778V19.7778H95.8908V8.88889Z" fill="#F1F1F1"/>
<path d="M1.56445 1.26574L7.03691 0V2.53147L2.34623 4.43008L1.56445 1.26574Z" fill="#0EC37D"/>
<path d="M0 13.8565L2.34534 16.4546L9.38135 2.59809L7.03601 0L0 13.8565Z" fill="url(#paint0_linear_1_651)"/>
<path d="M4.69141 17.6539L7.03674 20.252L14.0728 6.39546L11.7274 3.79736L4.69141 17.6539Z" fill="url(#paint1_linear_1_651)"/>
<path d="M11.7264 22.7833L14.8535 24.6819H9.38106V21.4583L11.7264 22.7833Z" fill="#0EC37D"/>
<path d="M9.38086 21.4507L11.7262 24.0488L18.7622 10.1923L16.4169 7.59424L9.38086 21.4507Z" fill="url(#paint2_linear_1_651)"/>
<defs>
<linearGradient id="paint0_linear_1_651" x1="4.69067" y1="0" x2="4.69067" y2="16.4546" gradientUnits="userSpaceOnUse">
<stop stop-color="#0082C4"/>
<stop offset="1" stop-color="#0EC37D"/>
</linearGradient>
<linearGradient id="paint1_linear_1_651" x1="9.38208" y1="3.79736" x2="9.38208" y2="20.252" gradientUnits="userSpaceOnUse">
<stop stop-color="#0082C4"/>
<stop offset="1" stop-color="#0EC37D"/>
</linearGradient>
<linearGradient id="paint2_linear_1_651" x1="14.0715" y1="7.59424" x2="14.0715" y2="24.0488" gradientUnits="userSpaceOnUse">
<stop stop-color="#0082C4"/>
<stop offset="1" stop-color="#0EC37D"/>
</linearGradient>
</defs>
</svg>
