<svg width="46" height="54" viewBox="0 0 46 54" fill="none" xmlns="http://www.w3.org/2000/svg">
<circle cx="21.9888" cy="31.4661" r="21.9888" fill="url(#paint0_linear_1_228)"/>
<mask id="mask0_1_228" style="mask-type:alpha" maskUnits="userSpaceOnUse" x="0" y="9" width="44" height="45">
<circle cx="21.9888" cy="31.4661" r="21.9888" fill="url(#paint1_linear_1_228)"/>
</mask>
<g mask="url(#mask0_1_228)">
<rect x="7.26001" y="1.75342" width="29.4574" height="54.9515" rx="3.25" fill="#C6CAD9" stroke="#161C3E" stroke-width="1.5"/>
</g>
<path d="M33.4646 1.00342H10.52C8.31088 1.00342 6.52002 2.79428 6.52002 5.00342V28.7208C6.52002 30.9299 8.31088 32.7208 10.52 32.7208H33.4646C35.6738 32.7208 37.4646 30.93 37.4646 28.7208V5.00342C37.4646 2.79428 35.6738 1.00342 33.4646 1.00342Z" fill="#C6CAD9"/>
<path d="M36.7133 32.7208V5.00342C36.7133 2.79428 34.9224 1.00342 32.7133 1.00342H11.2659C9.05673 1.00342 7.26587 2.79428 7.26587 5.00342V32.7208" stroke="#161C3E" stroke-width="1.5"/>
<rect x="12.207" y="8.97559" width="19.5706" height="6.19434" rx="1" fill="#F9F9F9"/>
<rect x="12.207" y="17.5515" width="19.5706" height="2.2835" rx="1" fill="#F9F9F9"/>
<rect x="12.207" y="21.4763" width="19.5706" height="2.2835" rx="1" fill="#F9F9F9"/>
<rect x="12.207" y="27.4541" width="9.30791" height="1.57665" rx="0.788325" fill="#F9F9F9"/>
<rect x="12.207" y="30.3433" width="21.7212" height="1.57665" rx="0.788325" fill="#F9F9F9"/>
<circle cx="37.4636" cy="8.56567" r="8.36597" fill="#FFAC04" fill-opacity="0.92"/>
<path d="M34.3129 8.25483L36.7174 10.9494L40.6144 6.18188" stroke="#F9F9F9" stroke-linecap="round" stroke-linejoin="round"/>
<defs>
<linearGradient id="paint0_linear_1_228" x1="21.9395" y1="-17.4993" x2="21.9888" y2="53.455" gradientUnits="userSpaceOnUse">
<stop stop-color="#FFC845"/>
<stop offset="1" stop-color="#87CE5E"/>
</linearGradient>
<linearGradient id="paint1_linear_1_228" x1="21.9888" y1="9.47729" x2="21.9888" y2="53.455" gradientUnits="userSpaceOnUse">
<stop stop-color="#FFC845"/>
<stop offset="1" stop-color="#82C563"/>
</linearGradient>
</defs>
</svg>
