<svg width="179" height="160" viewBox="0 0 179 160" fill="none" xmlns="http://www.w3.org/2000/svg">
<rect x="74.8167" y="77.9747" width="103.291" height="59.7468" fill="#35A872"/>
<mask id="mask0_1_438" style="mask-type:alpha" maskUnits="userSpaceOnUse" x="74" y="77" width="105" height="61">
<rect x="74.8167" y="77.9747" width="103.291" height="59.7468" fill="#35A872"/>
</mask>
<g mask="url(#mask0_1_438)">
<circle cx="75.8294" cy="78.9875" r="15.1899" fill="#3DC285"/>
<circle cx="75.8294" cy="135.696" r="15.1899" fill="#3DC285"/>
<circle cx="177.095" cy="135.696" r="15.1899" fill="#3DC285"/>
<circle cx="177.095" cy="78.9875" r="15.1899" fill="#3DC285"/>
</g>
<circle cx="126.969" cy="107.848" r="24.8101" fill="#3DC285"/>
<path d="M133.948 112.847C133.948 113.83 133.693 114.756 133.182 115.625C132.691 116.476 131.954 117.185 130.971 117.752C130.007 118.3 128.863 118.622 127.54 118.716V121.013H125.725V118.688C123.835 118.518 122.313 117.95 121.16 116.986C120.007 116.003 119.411 114.68 119.374 113.017H123.627C123.74 114.378 124.44 115.2 125.725 115.484V110.068C124.364 109.728 123.268 109.387 122.436 109.047C121.604 108.707 120.886 108.159 120.281 107.403C119.676 106.647 119.374 105.616 119.374 104.312C119.374 102.667 119.96 101.325 121.132 100.286C122.323 99.246 123.854 98.6506 125.725 98.4993V96.2026H127.54V98.4993C129.354 98.6506 130.8 99.1988 131.878 100.144C132.974 101.089 133.589 102.393 133.721 104.057H129.439C129.383 103.509 129.184 103.036 128.844 102.639C128.523 102.223 128.088 101.93 127.54 101.76V107.119C128.957 107.478 130.073 107.828 130.886 108.168C131.717 108.49 132.436 109.028 133.04 109.784C133.645 110.522 133.948 111.542 133.948 112.847ZM123.513 104.114C123.513 104.737 123.702 105.248 124.08 105.645C124.459 106.023 125.007 106.335 125.725 106.58V101.675C125.045 101.77 124.506 102.025 124.109 102.441C123.712 102.856 123.513 103.414 123.513 104.114ZM127.54 115.54C128.258 115.408 128.816 115.115 129.213 114.661C129.629 114.208 129.836 113.66 129.836 113.017C129.836 112.393 129.638 111.892 129.241 111.514C128.844 111.136 128.277 110.824 127.54 110.578V115.54Z" fill="#35A872"/>
<rect x="60.6394" y="88.1013" width="103.291" height="59.7468" fill="#35A872"/>
<mask id="mask1_1_438" style="mask-type:alpha" maskUnits="userSpaceOnUse" x="60" y="88" width="104" height="60">
<rect x="60.6394" y="88.1013" width="103.291" height="59.7468" fill="#35A872"/>
</mask>
<g mask="url(#mask1_1_438)">
<circle cx="61.6526" cy="89.1142" r="15.1899" fill="#3DC285"/>
<circle cx="61.6526" cy="145.823" r="15.1899" fill="#3DC285"/>
<circle cx="162.919" cy="145.823" r="15.1899" fill="#3DC285"/>
<circle cx="162.919" cy="89.1142" r="15.1899" fill="#3DC285"/>
</g>
<circle cx="112.792" cy="117.975" r="24.8101" fill="#3DC285"/>
<path d="M119.771 122.973C119.771 123.956 119.516 124.883 119.006 125.752C118.514 126.603 117.777 127.312 116.794 127.879C115.83 128.427 114.686 128.748 113.363 128.843V131.139H111.548V128.814C109.658 128.644 108.136 128.077 106.983 127.113C105.83 126.13 105.235 124.807 105.197 123.144H109.45C109.563 124.505 110.263 125.327 111.548 125.61V120.195C110.187 119.854 109.091 119.514 108.259 119.174C107.427 118.834 106.709 118.285 106.104 117.529C105.499 116.773 105.197 115.743 105.197 114.439C105.197 112.794 105.783 111.452 106.955 110.412C108.146 109.373 109.677 108.777 111.548 108.626V106.329H113.363V108.626C115.178 108.777 116.624 109.325 117.701 110.271C118.798 111.216 119.412 112.52 119.544 114.184H115.263C115.206 113.635 115.008 113.163 114.667 112.766C114.346 112.35 113.911 112.057 113.363 111.887V117.246C114.781 117.605 115.896 117.955 116.709 118.295C117.541 118.616 118.259 119.155 118.864 119.911C119.469 120.648 119.771 121.669 119.771 122.973ZM109.337 114.24C109.337 114.864 109.526 115.374 109.904 115.771C110.282 116.149 110.83 116.461 111.548 116.707V111.802C110.868 111.896 110.329 112.151 109.932 112.567C109.535 112.983 109.337 113.541 109.337 114.24ZM113.363 125.667C114.081 125.535 114.639 125.242 115.036 124.788C115.452 124.334 115.66 123.786 115.66 123.144C115.66 122.52 115.461 122.019 115.064 121.641C114.667 121.263 114.1 120.951 113.363 120.705V125.667Z" fill="#35A872"/>
<rect x="47.4749" y="100.253" width="103.291" height="59.7468" fill="#35A872"/>
<mask id="mask2_1_438" style="mask-type:alpha" maskUnits="userSpaceOnUse" x="47" y="100" width="104" height="60">
<rect x="47.4749" y="100.253" width="103.291" height="59.7468" fill="#35A872"/>
</mask>
<g mask="url(#mask2_1_438)">
<circle cx="48.4876" cy="101.266" r="15.1899" fill="#3DC285"/>
<circle cx="48.4876" cy="157.975" r="15.1899" fill="#3DC285"/>
<circle cx="149.753" cy="157.975" r="15.1899" fill="#3DC285"/>
<circle cx="149.753" cy="101.266" r="15.1899" fill="#3DC285"/>
</g>
<circle cx="99.6268" cy="130.127" r="24.8101" fill="#3DC285"/>
<path d="M106.606 135.125C106.606 136.108 106.351 137.034 105.84 137.904C105.349 138.755 104.612 139.463 103.629 140.031C102.665 140.579 101.521 140.9 100.198 140.995V143.291H98.3833V140.966C96.493 140.796 94.9713 140.229 93.8182 139.265C92.6651 138.282 92.0697 136.959 92.0319 135.295H96.285C96.3984 136.656 97.0979 137.479 98.3833 137.762V132.347C97.0222 132.006 95.9259 131.666 95.0941 131.326C94.2624 130.986 93.5441 130.437 92.9392 129.681C92.3343 128.925 92.0319 127.895 92.0319 126.591C92.0319 124.946 92.6179 123.604 93.7898 122.564C94.9807 121.525 96.5119 120.929 98.3833 120.778V118.481H100.198V120.778C102.013 120.929 103.459 121.477 104.536 122.422C105.633 123.368 106.247 124.672 106.379 126.335H102.098C102.041 125.787 101.842 125.315 101.502 124.918C101.181 124.502 100.746 124.209 100.198 124.039V129.398C101.616 129.757 102.731 130.107 103.544 130.447C104.375 130.768 105.094 131.307 105.699 132.063C106.304 132.8 106.606 133.821 106.606 135.125ZM96.1716 126.392C96.1716 127.016 96.3606 127.526 96.7387 127.923C97.1168 128.301 97.6649 128.613 98.3833 128.859V123.954C97.7027 124.048 97.164 124.303 96.7671 124.719C96.3701 125.135 96.1716 125.693 96.1716 126.392ZM100.198 137.819C100.916 137.687 101.474 137.394 101.871 136.94C102.287 136.486 102.495 135.938 102.495 135.295C102.495 134.672 102.296 134.171 101.899 133.793C101.502 133.415 100.935 133.103 100.198 132.857V137.819Z" fill="#35A872"/>
<path d="M23.171 111.899C23.171 121.62 29.9221 124.388 33.2976 124.557C16.285 123.747 12.1262 110.717 12.1733 104.304V91.9061H3.93054L17.6014 72.9114L31.2723 91.9061H23.171V111.899Z" fill="#C3C6C7"/>
<path d="M126.462 48.1015C124.437 22.9876 105.028 16.3716 95.5762 16.2028C130.412 11.342 139.796 35.4433 140.133 48.1015H150.766L132.032 67.342L112.285 48.1015H126.462Z" fill="#C3C6C7"/>
<circle r="33.924" transform="matrix(-1 0 0 1 34.8167 33.924)" fill="#FFAC04" fill-opacity="0.92"/>
<circle r="28.8608" transform="matrix(-1 0 0 1 34.817 33.924)" fill="#FFD33A"/>
<path fill-rule="evenodd" clip-rule="evenodd" d="M43.4236 13.1647C43.4236 11.4869 42.0635 10.1267 40.3857 10.1267C38.7078 10.1267 37.3477 11.4869 37.3477 13.1647V16.2027L33.2971 16.2027V13.1647C33.2971 11.4869 31.9369 10.1267 30.2591 10.1267C28.5813 10.1267 27.2211 11.4869 27.2211 13.1647V16.2027C27.2211 16.4814 27.2587 16.7514 27.329 17.0079C27.0777 17.0892 26.8326 17.1768 26.5937 17.2704C24.7425 17.9823 23.3542 18.9727 22.4286 20.2417C21.4675 21.5107 20.9869 22.9498 20.9869 24.5593C20.9869 26.4472 21.5743 28.0257 22.749 29.2947C22.9261 29.492 23.1127 29.6803 23.3088 29.8596C24.1018 30.5851 24.0002 33.1156 23.161 33.787C22.8078 34.0695 22.4747 34.3826 22.1616 34.7265C20.8089 36.2121 20.1325 37.9144 20.1325 39.8333C20.1325 41.5665 20.6309 43.0986 21.6277 44.4294C22.5888 45.7293 23.995 46.7507 25.8461 47.4935C26.3054 47.6778 26.7855 47.8393 27.2865 47.9778C27.2437 48.181 27.2211 48.3918 27.2211 48.6077V51.6457C27.2211 53.3235 28.5813 54.6837 30.2591 54.6837C31.9369 54.6837 33.2971 53.3235 33.2971 51.6457V48.6077H37.3477V51.6457C37.3477 53.3235 38.7078 54.6837 40.3857 54.6837C42.0635 54.6837 43.4236 53.3235 43.4236 51.6457V48.6077H47.4869C48.0392 48.6077 48.4869 48.16 48.4869 47.6077V17.2027C48.4869 16.6504 48.0392 16.2027 47.4869 16.2027H43.4236V13.1647ZM41.0112 28.5732C41.0112 29.1255 40.5635 29.5732 40.0112 29.5732H34.1762C32.3963 29.5732 31.0257 29.2328 30.0646 28.5519C29.1034 27.84 28.6228 26.8341 28.6228 25.5342C28.6228 24.2343 29.1034 23.2284 30.0646 22.5165C31.0257 21.8047 32.3963 21.4487 34.1762 21.4487H40.0112C40.5635 21.4487 41.0112 21.8965 41.0112 22.4487V28.5732ZM33.482 43.3152C31.6665 43.3152 30.2604 42.9438 29.2636 42.201C28.2312 41.4582 27.715 40.4059 27.715 39.0441C27.715 37.6513 28.249 36.568 29.317 35.7943C30.385 34.9895 31.8267 34.5872 33.6422 34.5872H40.0112C40.5635 34.5872 41.0112 35.0349 41.0112 35.5872V42.3152C41.0112 42.8675 40.5635 43.3152 40.0112 43.3152H33.482Z" fill="#FFB632"/>
<circle r="33.924" transform="matrix(-1 0 0 1 45.9558 33.924)" fill="#FFAC04" fill-opacity="0.92"/>
<circle r="28.8608" transform="matrix(-1 0 0 1 45.9566 33.924)" fill="#FFD33A"/>
<path fill-rule="evenodd" clip-rule="evenodd" d="M54.5639 13.1647C54.5639 11.4869 53.2038 10.1267 51.5259 10.1267C49.8481 10.1267 48.488 11.4869 48.488 13.1647V16.2027L44.4373 16.2027V13.1647C44.4373 11.4869 43.0772 10.1267 41.3993 10.1267C39.7215 10.1267 38.3614 11.4869 38.3614 13.1647V16.2027C38.3614 16.4814 38.3989 16.7514 38.4692 17.0079C38.218 17.0892 37.9729 17.1768 37.7339 17.2704C35.8828 17.9823 34.4945 18.9727 33.5689 20.2417C32.6077 21.5107 32.1271 22.9498 32.1271 24.5593C32.1271 26.4472 32.7145 28.0257 33.8893 29.2947C34.0664 29.492 34.253 29.6803 34.449 29.8596C35.242 30.5851 35.1405 33.1156 34.3012 33.787C33.9481 34.0695 33.615 34.3826 33.3019 34.7265C31.9491 36.2121 31.2728 37.9144 31.2728 39.8333C31.2728 41.5665 31.7711 43.0986 32.7679 44.4294C33.7291 45.7293 35.1352 46.7507 36.9864 47.4935C37.4457 47.6778 37.9258 47.8393 38.4268 47.9778C38.3839 48.181 38.3614 48.3918 38.3614 48.6077V51.6457C38.3614 53.3235 39.7215 54.6837 41.3993 54.6837C43.0772 54.6837 44.4373 53.3235 44.4373 51.6457V48.6077H48.488V51.6457C48.488 53.3235 49.8481 54.6837 51.5259 54.6837C53.2038 54.6837 54.5639 53.3235 54.5639 51.6457V48.6077H58.6272C59.1795 48.6077 59.6272 48.16 59.6272 47.6077V17.2027C59.6272 16.6504 59.1795 16.2027 58.6272 16.2027H54.5639V13.1647ZM52.1515 28.5732C52.1515 29.1255 51.7037 29.5732 51.1515 29.5732H45.3165C43.5365 29.5732 42.166 29.2328 41.2048 28.5519C40.2437 27.84 39.7631 26.8341 39.7631 25.5342C39.7631 24.2343 40.2437 23.2284 41.2048 22.5165C42.166 21.8047 43.5365 21.4487 45.3165 21.4487H51.1515C51.7037 21.4487 52.1515 21.8965 52.1515 22.4487V28.5732ZM44.6223 43.3152C42.8068 43.3152 41.4006 42.9438 40.4039 42.201C39.3715 41.4582 38.8553 40.4059 38.8553 39.0441C38.8553 37.6513 39.3893 36.568 40.4573 35.7943C41.5252 34.9895 42.967 34.5872 44.7825 34.5872H51.1515C51.7037 34.5872 52.1515 35.0349 52.1515 35.5872V42.3152C52.1515 42.8675 51.7037 43.3152 51.1515 43.3152H44.6223Z" fill="#FFB632"/>
<circle r="33.924" transform="matrix(-1 0 0 1 56.0824 33.924)" fill="#FFAC04" fill-opacity="0.92"/>
<circle r="28.8608" transform="matrix(-1 0 0 1 56.0828 33.924)" fill="#FFD33A"/>
<path fill-rule="evenodd" clip-rule="evenodd" d="M64.6898 13.1647C64.6898 11.4869 63.3296 10.1267 61.6518 10.1267C59.974 10.1267 58.6138 11.4869 58.6138 13.1647V16.2027L54.5632 16.2027V13.1647C54.5632 11.4869 53.203 10.1267 51.5252 10.1267C49.8474 10.1267 48.4872 11.4869 48.4872 13.1647V16.2027C48.4872 16.4814 48.5248 16.7514 48.5951 17.0079C48.3438 17.0892 48.0987 17.1768 47.8598 17.2704C46.0087 17.9823 44.6203 18.9727 43.6947 20.2417C42.7336 21.5107 42.253 22.9498 42.253 24.5593C42.253 26.4472 42.8404 28.0257 44.0151 29.2947C44.1922 29.492 44.3788 29.6803 44.5749 29.8596C45.3679 30.5851 45.2664 33.1156 44.4271 33.787C44.074 34.0695 43.7408 34.3826 43.4277 34.7265C42.075 36.2121 41.3986 37.9144 41.3986 39.8333C41.3986 41.5665 41.897 43.0986 42.8938 44.4294C43.8549 45.7293 45.2611 46.7507 47.1122 47.4935C47.5715 47.6778 48.0517 47.8393 48.5526 47.9778C48.5098 48.1811 48.4872 48.3918 48.4872 48.6077V51.6457C48.4872 53.3235 49.8474 54.6837 51.5252 54.6837C53.203 54.6837 54.5632 53.3235 54.5632 51.6457V48.6077H58.6138V51.6457C58.6138 53.3235 59.974 54.6837 61.6518 54.6837C63.3296 54.6837 64.6898 53.3235 64.6898 51.6457V48.6077H68.7531C69.3053 48.6077 69.7531 48.16 69.7531 47.6077V17.2027C69.7531 16.6504 69.3053 16.2027 68.7531 16.2027H64.6898V13.1647ZM62.2773 28.5732C62.2773 29.1255 61.8296 29.5732 61.2773 29.5732H55.4423C53.6624 29.5732 52.2918 29.2328 51.3307 28.5519C50.3695 27.84 49.8889 26.8341 49.8889 25.5342C49.8889 24.2343 50.3695 23.2284 51.3307 22.5165C52.2918 21.8047 53.6624 21.4487 55.4423 21.4487H61.2773C61.8296 21.4487 62.2773 21.8965 62.2773 22.4487V28.5732ZM54.7482 43.3152C52.9326 43.3152 51.5265 42.9438 50.5297 42.201C49.4973 41.4582 48.9812 40.4059 48.9812 39.0441C48.9812 37.6513 49.5151 36.568 50.5831 35.7943C51.6511 34.9895 53.0928 34.5872 54.9084 34.5872H61.2773C61.8296 34.5872 62.2773 35.0349 62.2773 35.5872V42.3152C62.2773 42.8675 61.8296 43.3152 61.2773 43.3152H54.7482Z" fill="#FFB632"/>
</svg>
