<svg xmlns="http://www.w3.org/2000/svg" width="163" height="186" fill="none" viewBox="0 0 163 186"><path fill="#35A872" d="M45.5 55.5001L68 53.5001C65.5 49.5002 64.5 42.5001 55 32.5001C47.4 24.5001 36.8333 24.5001 32.5 25.5001L11 28.0001L26 48.5001C33.2 56.5001 40 56.5001 45.5 55.5001Z"/><path fill="#35A872" d="M97.165 24.8179L82.7428 42.2033C87.3434 43.2444 93.0182 47.4631 106.808 47.7583C117.84 47.9944 125.28 40.4911 127.621 36.7099L140.984 19.6826L115.866 15.8999C105.115 15.3797 100.328 20.2083 97.165 24.8179Z"/><path fill="#3DC285" d="M67.5 55.1266C71.7511 59.0507 72.7274 71.4851 72.6689 77.6227C72.6538 79.2054 73.9317 80.6266 75.5145 80.6266C76.9013 80.6266 78.0374 79.5311 78.0816 78.145L78.0909 77.8515C78.3207 70.6374 78.8116 55.2242 79.5 52.1265C82.7 41.3265 93.8333 39.2931 99 39.6265H109.195C110.744 39.6265 112 38.3706 112 36.8215C112 35.3159 110.814 34.0785 109.309 34.0458C104.508 33.9418 97.1058 33.9685 92.5 34.6264C85.8853 35.6933 81.2531 39.3687 78.1934 43.3756C76.3437 45.7979 68.0046 47.6001 65.4191 45.9862C64.9691 45.7052 64.4964 45.4186 64 45.1266C58.4 41.8325 51.0592 41.4772 46.5018 41.8268C45.0475 41.9383 44 43.1914 44 44.6499V45.6266C44 47.0073 45.1193 48.1266 46.5 48.1266C57 48.6266 61 49.1266 67.5 55.1266Z"/><path fill="#F0C6A4" d="M118.373 174L140.373 177.5L138.373 137.5L63.373 135V145L89.873 151L67.873 160C53.7064 156.333 23.773 148.6 17.373 147C9.37305 145 2.37299 143.5 0.372986 150.5C-1.22701 156.1 2.70632 159.167 4.87299 160L70.873 185.5L118.373 174Z"/><rect width="40" height="11" x="41" y="70" fill="#FFAC04" fill-opacity=".92"/><rect width="40" height="11" x="47" y="81" fill="#FFD33A"/><rect width="40" height="12" x="47" y="103" fill="#FFD33A"/><rect width="40" height="12" x="42" y="115" fill="#FFAC04" fill-opacity=".92"/><rect width="40" height="12" x="47" y="127" fill="#FFD33A"/><rect width="40" height="12" x="41" y="139" fill="#FFAC04" fill-opacity=".92"/><rect width="40" height="11" x="41" y="92" fill="#FFAC04" fill-opacity=".92"/><rect width="26" height="51" x="137" y="132" fill="#2D85CC"/><circle r="26.003" fill="#FFAC04" fill-opacity=".92" transform="matrix(-1 0 0 1 93.0029 115.003)"/><circle r="22.122" fill="#FFD33A" transform="matrix(-1 0 0 1 93.0035 115.003)"/><path fill="#FFAC04" fill-opacity=".92" d="M98.6062 118.461C98.6062 119.205 98.4131 119.906 98.0268 120.565C97.6547 121.208 97.0967 121.745 96.3527 122.174C95.623 122.589 94.7574 122.832 93.7558 122.904V124.642H92.3822V122.882C90.9514 122.754 89.7996 122.324 88.9268 121.595C88.054 120.851 87.6033 119.849 87.5747 118.59H90.794C90.8799 119.62 91.4093 120.243 92.3822 120.457V116.358C91.352 116.1 90.5222 115.843 89.8926 115.585C89.2631 115.328 88.7194 114.913 88.2615 114.341C87.8036 113.768 87.5747 112.988 87.5747 112.001C87.5747 110.756 88.0183 109.741 88.9054 108.954C89.8068 108.167 90.9657 107.716 92.3822 107.601V105.863H93.7558V107.601C95.1294 107.716 96.2239 108.131 97.0395 108.846C97.8694 109.562 98.3344 110.549 98.4345 111.808H95.1938C95.1508 111.393 95.0006 111.035 94.7431 110.735C94.4998 110.42 94.1707 110.198 93.7558 110.07V114.126C94.8289 114.398 95.6731 114.663 96.2883 114.92C96.9179 115.163 97.4616 115.571 97.9194 116.143C98.3773 116.701 98.6062 117.474 98.6062 118.461ZM90.7082 111.851C90.7082 112.323 90.8513 112.709 91.1374 113.01C91.4236 113.296 91.8385 113.532 92.3822 113.718V110.005C91.8671 110.077 91.4594 110.27 91.1589 110.585C90.8584 110.899 90.7082 111.322 90.7082 111.851ZM93.7558 120.5C94.2995 120.4 94.7216 120.178 95.0221 119.835C95.3368 119.491 95.4942 119.077 95.4942 118.59C95.4942 118.118 95.344 117.739 95.0435 117.453C94.7431 117.166 94.3138 116.93 93.7558 116.744V120.5Z"/></svg>