<svg xmlns="http://www.w3.org/2000/svg" width="46" height="54" fill="none" viewBox="0 0 46 54"><circle cx="21.989" cy="31.466" r="21.989" fill="url(#paint0_linear_1_228)"/><mask id="mask0_1_228" width="44" height="45" x="0" y="9" maskUnits="userSpaceOnUse" style="mask-type:alpha"><circle cx="21.989" cy="31.466" r="21.989" fill="url(#paint1_linear_1_228)"/></mask><g mask="url(#mask0_1_228)"><rect width="29.457" height="54.952" x="7.26" y="1.753" fill="#C6CAD9" stroke="#161C3E" stroke-width="1.5" rx="3.25"/></g><path fill="#C6CAD9" d="M33.4646 1.00342H10.52C8.31088 1.00342 6.52002 2.79428 6.52002 5.00342V28.7208C6.52002 30.9299 8.31088 32.7208 10.52 32.7208H33.4646C35.6738 32.7208 37.4646 30.93 37.4646 28.7208V5.00342C37.4646 2.79428 35.6738 1.00342 33.4646 1.00342Z"/><path stroke="#161C3E" stroke-width="1.5" d="M36.7133 32.7208V5.00342C36.7133 2.79428 34.9224 1.00342 32.7133 1.00342H11.2659C9.05673 1.00342 7.26587 2.79428 7.26587 5.00342V32.7208"/><rect width="19.571" height="6.194" x="12.207" y="8.976" fill="#F9F9F9" rx="1"/><rect width="19.571" height="2.284" x="12.207" y="17.552" fill="#F9F9F9" rx="1"/><rect width="19.571" height="2.284" x="12.207" y="21.476" fill="#F9F9F9" rx="1"/><rect width="9.308" height="1.577" x="12.207" y="27.454" fill="#F9F9F9" rx=".788"/><rect width="21.721" height="1.577" x="12.207" y="30.343" fill="#F9F9F9" rx=".788"/><circle cx="37.464" cy="8.566" r="8.366" fill="#FFAC04" fill-opacity=".92"/><path stroke="#F9F9F9" stroke-linecap="round" stroke-linejoin="round" d="M34.3129 8.25483L36.7174 10.9494L40.6144 6.18188"/><defs><linearGradient id="paint0_linear_1_228" x1="21.939" x2="21.989" y1="-17.499" y2="53.455" gradientUnits="userSpaceOnUse"><stop stop-color="#FFC845"/><stop offset="1" stop-color="#87CE5E"/></linearGradient><linearGradient id="paint1_linear_1_228" x1="21.989" x2="21.989" y1="9.477" y2="53.455" gradientUnits="userSpaceOnUse"><stop stop-color="#FFC845"/><stop offset="1" stop-color="#82C563"/></linearGradient></defs></svg>