<svg width="48" height="54" viewBox="0 0 48 54" fill="none" xmlns="http://www.w3.org/2000/svg">
<circle cx="25.356" cy="31.2664" r="21.9888" fill="url(#paint0_linear_1_247)"/>
<mask id="mask0_1_247" style="mask-type:alpha" maskUnits="userSpaceOnUse" x="3" y="9" width="45" height="45">
<circle cx="25.356" cy="31.2664" r="21.9888" fill="url(#paint1_linear_1_247)"/>
</mask>
<g mask="url(#mask0_1_247)">
<rect x="10.6272" y="1.55371" width="29.4574" height="54.9515" rx="3.25" fill="#C6CAD9" stroke="#161C3E" stroke-width="1.5"/>
</g>
<path d="M36.8318 0.803711H13.8872C11.6781 0.803711 9.88721 2.59457 9.88721 4.80371V28.5211C9.88721 30.7302 11.6781 32.5211 13.8872 32.5211H36.8318C39.041 32.5211 40.8318 30.7302 40.8318 28.5211V4.80371C40.8318 2.59457 39.041 0.803711 36.8318 0.803711Z" fill="#C6CAD9"/>
<path d="M40.0805 32.5211V4.80371C40.0805 2.59457 38.2896 0.803711 36.0805 0.803711H14.6331C12.4239 0.803711 10.6331 2.59457 10.6331 4.80371V32.5211" stroke="#161C3E" stroke-width="1.5"/>
<rect x="15.5742" y="8.77588" width="19.5706" height="6.19434" rx="1" fill="#F9F9F9"/>
<rect x="15.5742" y="17.3518" width="19.5706" height="2.2835" rx="1" fill="#F9F9F9"/>
<rect x="15.5742" y="21.2766" width="19.5706" height="2.2835" rx="1" fill="#F9F9F9"/>
<rect x="15.5742" y="27.2544" width="9.30791" height="1.57665" rx="0.788325" fill="#F9F9F9"/>
<rect x="15.5742" y="30.1436" width="21.7212" height="1.57665" rx="0.788325" fill="#F9F9F9"/>
<circle cx="8.36597" cy="8.36597" r="8.36597" fill="#FFAC04" fill-opacity="0.92"/>
<path d="M11.4598 8.81782H8.8757V11.4384H7.84447V8.81782H5.27246V7.88364H7.84447V5.25098H8.8757V7.88364H11.4598V8.81782Z" fill="white"/>
<defs>
<linearGradient id="paint0_linear_1_247" x1="25.2207" y1="-5.69897" x2="25.356" y2="53.2552" gradientUnits="userSpaceOnUse">
<stop stop-color="#FFC845"/>
<stop offset="1" stop-color="#68C569"/>
</linearGradient>
<linearGradient id="paint1_linear_1_247" x1="25.356" y1="9.27759" x2="25.356" y2="53.2552" gradientUnits="userSpaceOnUse">
<stop stop-color="#FFC845"/>
<stop offset="1" stop-color="#DF5ADE"/>
</linearGradient>
</defs>
</svg>
