<svg xmlns="http://www.w3.org/2000/svg" width="48" height="54" fill="none" viewBox="0 0 48 54"><circle cx="25.356" cy="31.266" r="21.989" fill="url(#paint0_linear_1_247)"/><mask id="mask0_1_247" width="45" height="45" x="3" y="9" maskUnits="userSpaceOnUse" style="mask-type:alpha"><circle cx="25.356" cy="31.266" r="21.989" fill="url(#paint1_linear_1_247)"/></mask><g mask="url(#mask0_1_247)"><rect width="29.457" height="54.952" x="10.627" y="1.554" fill="#C6CAD9" stroke="#161C3E" stroke-width="1.5" rx="3.25"/></g><path fill="#C6CAD9" d="M36.8318 0.803711H13.8872C11.6781 0.803711 9.88721 2.59457 9.88721 4.80371V28.5211C9.88721 30.7302 11.6781 32.5211 13.8872 32.5211H36.8318C39.041 32.5211 40.8318 30.7302 40.8318 28.5211V4.80371C40.8318 2.59457 39.041 0.803711 36.8318 0.803711Z"/><path stroke="#161C3E" stroke-width="1.5" d="M40.0805 32.5211V4.80371C40.0805 2.59457 38.2896 0.803711 36.0805 0.803711H14.6331C12.4239 0.803711 10.6331 2.59457 10.6331 4.80371V32.5211"/><rect width="19.571" height="6.194" x="15.574" y="8.776" fill="#F9F9F9" rx="1"/><rect width="19.571" height="2.284" x="15.574" y="17.352" fill="#F9F9F9" rx="1"/><rect width="19.571" height="2.284" x="15.574" y="21.277" fill="#F9F9F9" rx="1"/><rect width="9.308" height="1.577" x="15.574" y="27.254" fill="#F9F9F9" rx=".788"/><rect width="21.721" height="1.577" x="15.574" y="30.144" fill="#F9F9F9" rx=".788"/><circle cx="8.366" cy="8.366" r="8.366" fill="#FFAC04" fill-opacity=".92"/><path fill="#fff" d="M11.4598 8.81782H8.8757V11.4384H7.84447V8.81782H5.27246V7.88364H7.84447V5.25098H8.8757V7.88364H11.4598V8.81782Z"/><defs><linearGradient id="paint0_linear_1_247" x1="25.221" x2="25.356" y1="-5.699" y2="53.255" gradientUnits="userSpaceOnUse"><stop stop-color="#FFC845"/><stop offset="1" stop-color="#68C569"/></linearGradient><linearGradient id="paint1_linear_1_247" x1="25.356" x2="25.356" y1="9.278" y2="53.255" gradientUnits="userSpaceOnUse"><stop stop-color="#FFC845"/><stop offset="1" stop-color="#DF5ADE"/></linearGradient></defs></svg>